%TF.GenerationSoftware,KiCad,Pcbnew,(6.0.0-0)*%
%TF.CreationDate,2022-11-20T21:56:22+02:00*%
%TF.ProjectId,realant_esp32,7265616c-616e-4745-9f65-737033322e6b,1.2*%
%TF.SameCoordinates,Original*%
%TF.FileFunction,Legend,Top*%
%TF.FilePolarity,Positive*%
%FSLAX46Y46*%
G04 Gerber Fmt 4.6, Leading zero omitted, Abs format (unit mm)*
G04 Created by KiCad (PCBNEW (6.0.0-0)) date 2022-11-20 21:56:22*
%MOMM*%
%LPD*%
G01*
G04 APERTURE LIST*
%ADD10C,0.125000*%
%ADD11C,0.150000*%
%ADD12C,0.120000*%
%ADD13C,0.010000*%
G04 APERTURE END LIST*
D10*
X68352619Y-81574761D02*
X68828809Y-81241428D01*
X68352619Y-81003333D02*
X69352619Y-81003333D01*
X69352619Y-81384285D01*
X69305000Y-81479523D01*
X69257380Y-81527142D01*
X69162142Y-81574761D01*
X69019285Y-81574761D01*
X68924047Y-81527142D01*
X68876428Y-81479523D01*
X68828809Y-81384285D01*
X68828809Y-81003333D01*
X68400238Y-82384285D02*
X68352619Y-82289047D01*
X68352619Y-82098571D01*
X68400238Y-82003333D01*
X68495476Y-81955714D01*
X68876428Y-81955714D01*
X68971666Y-82003333D01*
X69019285Y-82098571D01*
X69019285Y-82289047D01*
X68971666Y-82384285D01*
X68876428Y-82431904D01*
X68781190Y-82431904D01*
X68685952Y-81955714D01*
X68352619Y-83289047D02*
X68876428Y-83289047D01*
X68971666Y-83241428D01*
X69019285Y-83146190D01*
X69019285Y-82955714D01*
X68971666Y-82860476D01*
X68400238Y-83289047D02*
X68352619Y-83193809D01*
X68352619Y-82955714D01*
X68400238Y-82860476D01*
X68495476Y-82812857D01*
X68590714Y-82812857D01*
X68685952Y-82860476D01*
X68733571Y-82955714D01*
X68733571Y-83193809D01*
X68781190Y-83289047D01*
X68352619Y-83908095D02*
X68400238Y-83812857D01*
X68495476Y-83765238D01*
X69352619Y-83765238D01*
X68638333Y-84241428D02*
X68638333Y-84717619D01*
X68352619Y-84146190D02*
X69352619Y-84479523D01*
X68352619Y-84812857D01*
X69019285Y-85146190D02*
X68352619Y-85146190D01*
X68924047Y-85146190D02*
X68971666Y-85193809D01*
X69019285Y-85289047D01*
X69019285Y-85431904D01*
X68971666Y-85527142D01*
X68876428Y-85574761D01*
X68352619Y-85574761D01*
X69019285Y-85908095D02*
X69019285Y-86289047D01*
X69352619Y-86050952D02*
X68495476Y-86050952D01*
X68400238Y-86098571D01*
X68352619Y-86193809D01*
X68352619Y-86289047D01*
X68352619Y-87384285D02*
X69352619Y-87384285D01*
X68638333Y-87717619D01*
X69352619Y-88050952D01*
X68352619Y-88050952D01*
X68352619Y-88955714D02*
X68876428Y-88955714D01*
X68971666Y-88908095D01*
X69019285Y-88812857D01*
X69019285Y-88622380D01*
X68971666Y-88527142D01*
X68400238Y-88955714D02*
X68352619Y-88860476D01*
X68352619Y-88622380D01*
X68400238Y-88527142D01*
X68495476Y-88479523D01*
X68590714Y-88479523D01*
X68685952Y-88527142D01*
X68733571Y-88622380D01*
X68733571Y-88860476D01*
X68781190Y-88955714D01*
X68352619Y-89431904D02*
X69019285Y-89431904D01*
X69352619Y-89431904D02*
X69305000Y-89384285D01*
X69257380Y-89431904D01*
X69305000Y-89479523D01*
X69352619Y-89431904D01*
X69257380Y-89431904D01*
X69019285Y-89908095D02*
X68352619Y-89908095D01*
X68924047Y-89908095D02*
X68971666Y-89955714D01*
X69019285Y-90050952D01*
X69019285Y-90193809D01*
X68971666Y-90289047D01*
X68876428Y-90336666D01*
X68352619Y-90336666D01*
X68876428Y-91908095D02*
X68828809Y-92050952D01*
X68781190Y-92098571D01*
X68685952Y-92146190D01*
X68543095Y-92146190D01*
X68447857Y-92098571D01*
X68400238Y-92050952D01*
X68352619Y-91955714D01*
X68352619Y-91574761D01*
X69352619Y-91574761D01*
X69352619Y-91908095D01*
X69305000Y-92003333D01*
X69257380Y-92050952D01*
X69162142Y-92098571D01*
X69066904Y-92098571D01*
X68971666Y-92050952D01*
X68924047Y-92003333D01*
X68876428Y-91908095D01*
X68876428Y-91574761D01*
X68352619Y-92717619D02*
X68400238Y-92622380D01*
X68447857Y-92574761D01*
X68543095Y-92527142D01*
X68828809Y-92527142D01*
X68924047Y-92574761D01*
X68971666Y-92622380D01*
X69019285Y-92717619D01*
X69019285Y-92860476D01*
X68971666Y-92955714D01*
X68924047Y-93003333D01*
X68828809Y-93050952D01*
X68543095Y-93050952D01*
X68447857Y-93003333D01*
X68400238Y-92955714D01*
X68352619Y-92860476D01*
X68352619Y-92717619D01*
X68352619Y-93908095D02*
X68876428Y-93908095D01*
X68971666Y-93860476D01*
X69019285Y-93765238D01*
X69019285Y-93574761D01*
X68971666Y-93479523D01*
X68400238Y-93908095D02*
X68352619Y-93812857D01*
X68352619Y-93574761D01*
X68400238Y-93479523D01*
X68495476Y-93431904D01*
X68590714Y-93431904D01*
X68685952Y-93479523D01*
X68733571Y-93574761D01*
X68733571Y-93812857D01*
X68781190Y-93908095D01*
X68352619Y-94384285D02*
X69019285Y-94384285D01*
X68828809Y-94384285D02*
X68924047Y-94431904D01*
X68971666Y-94479523D01*
X69019285Y-94574761D01*
X69019285Y-94670000D01*
X68352619Y-95431904D02*
X69352619Y-95431904D01*
X68400238Y-95431904D02*
X68352619Y-95336666D01*
X68352619Y-95146190D01*
X68400238Y-95050952D01*
X68447857Y-95003333D01*
X68543095Y-94955714D01*
X68828809Y-94955714D01*
X68924047Y-95003333D01*
X68971666Y-95050952D01*
X69019285Y-95146190D01*
X69019285Y-95336666D01*
X68971666Y-95431904D01*
X69019285Y-96574761D02*
X68352619Y-96812857D01*
X69019285Y-97050952D01*
X68352619Y-97955714D02*
X68352619Y-97384285D01*
X68352619Y-97670000D02*
X69352619Y-97670000D01*
X69209761Y-97574761D01*
X69114523Y-97479523D01*
X69066904Y-97384285D01*
X68447857Y-98384285D02*
X68400238Y-98431904D01*
X68352619Y-98384285D01*
X68400238Y-98336666D01*
X68447857Y-98384285D01*
X68352619Y-98384285D01*
X69257380Y-98812857D02*
X69305000Y-98860476D01*
X69352619Y-98955714D01*
X69352619Y-99193809D01*
X69305000Y-99289047D01*
X69257380Y-99336666D01*
X69162142Y-99384285D01*
X69066904Y-99384285D01*
X68924047Y-99336666D01*
X68352619Y-98765238D01*
X68352619Y-99384285D01*
X67504523Y-81336666D02*
X67552142Y-81241428D01*
X67552142Y-81050952D01*
X67504523Y-80955714D01*
X67409285Y-80860476D01*
X67314047Y-80812857D01*
X67123571Y-80812857D01*
X67028333Y-80860476D01*
X66933095Y-80955714D01*
X66885476Y-81050952D01*
X66885476Y-81241428D01*
X66933095Y-81336666D01*
X67885476Y-81146190D02*
X67837857Y-80908095D01*
X67695000Y-80670000D01*
X67456904Y-80527142D01*
X67218809Y-80479523D01*
X66980714Y-80527142D01*
X66742619Y-80670000D01*
X66599761Y-80908095D01*
X66552142Y-81146190D01*
X66599761Y-81384285D01*
X66742619Y-81622380D01*
X66980714Y-81765238D01*
X67218809Y-81812857D01*
X67456904Y-81765238D01*
X67695000Y-81622380D01*
X67837857Y-81384285D01*
X67885476Y-81146190D01*
X67742619Y-83193809D02*
X67742619Y-83384285D01*
X67695000Y-83479523D01*
X67599761Y-83574761D01*
X67409285Y-83622380D01*
X67075952Y-83622380D01*
X66885476Y-83574761D01*
X66790238Y-83479523D01*
X66742619Y-83384285D01*
X66742619Y-83193809D01*
X66790238Y-83098571D01*
X66885476Y-83003333D01*
X67075952Y-82955714D01*
X67409285Y-82955714D01*
X67599761Y-83003333D01*
X67695000Y-83098571D01*
X67742619Y-83193809D01*
X67409285Y-83908095D02*
X67409285Y-84289047D01*
X67742619Y-84050952D02*
X66885476Y-84050952D01*
X66790238Y-84098571D01*
X66742619Y-84193809D01*
X66742619Y-84289047D01*
X66790238Y-85003333D02*
X66742619Y-84908095D01*
X66742619Y-84717619D01*
X66790238Y-84622380D01*
X66885476Y-84574761D01*
X67266428Y-84574761D01*
X67361666Y-84622380D01*
X67409285Y-84717619D01*
X67409285Y-84908095D01*
X67361666Y-85003333D01*
X67266428Y-85050952D01*
X67171190Y-85050952D01*
X67075952Y-84574761D01*
X66742619Y-86812857D02*
X67218809Y-86479523D01*
X66742619Y-86241428D02*
X67742619Y-86241428D01*
X67742619Y-86622380D01*
X67695000Y-86717619D01*
X67647380Y-86765238D01*
X67552142Y-86812857D01*
X67409285Y-86812857D01*
X67314047Y-86765238D01*
X67266428Y-86717619D01*
X67218809Y-86622380D01*
X67218809Y-86241428D01*
X66742619Y-87384285D02*
X66790238Y-87289047D01*
X66837857Y-87241428D01*
X66933095Y-87193809D01*
X67218809Y-87193809D01*
X67314047Y-87241428D01*
X67361666Y-87289047D01*
X67409285Y-87384285D01*
X67409285Y-87527142D01*
X67361666Y-87622380D01*
X67314047Y-87670000D01*
X67218809Y-87717619D01*
X66933095Y-87717619D01*
X66837857Y-87670000D01*
X66790238Y-87622380D01*
X66742619Y-87527142D01*
X66742619Y-87384285D01*
X66742619Y-88146190D02*
X67742619Y-88146190D01*
X67361666Y-88146190D02*
X67409285Y-88241428D01*
X67409285Y-88431904D01*
X67361666Y-88527142D01*
X67314047Y-88574761D01*
X67218809Y-88622380D01*
X66933095Y-88622380D01*
X66837857Y-88574761D01*
X66790238Y-88527142D01*
X66742619Y-88431904D01*
X66742619Y-88241428D01*
X66790238Y-88146190D01*
X66742619Y-89193809D02*
X66790238Y-89098571D01*
X66837857Y-89050952D01*
X66933095Y-89003333D01*
X67218809Y-89003333D01*
X67314047Y-89050952D01*
X67361666Y-89098571D01*
X67409285Y-89193809D01*
X67409285Y-89336666D01*
X67361666Y-89431904D01*
X67314047Y-89479523D01*
X67218809Y-89527142D01*
X66933095Y-89527142D01*
X66837857Y-89479523D01*
X66790238Y-89431904D01*
X66742619Y-89336666D01*
X66742619Y-89193809D01*
X67409285Y-89812857D02*
X67409285Y-90193809D01*
X67742619Y-89955714D02*
X66885476Y-89955714D01*
X66790238Y-90003333D01*
X66742619Y-90098571D01*
X66742619Y-90193809D01*
X66742619Y-90527142D02*
X67409285Y-90527142D01*
X67742619Y-90527142D02*
X67695000Y-90479523D01*
X67647380Y-90527142D01*
X67695000Y-90574761D01*
X67742619Y-90527142D01*
X67647380Y-90527142D01*
X66790238Y-91431904D02*
X66742619Y-91336666D01*
X66742619Y-91146190D01*
X66790238Y-91050952D01*
X66837857Y-91003333D01*
X66933095Y-90955714D01*
X67218809Y-90955714D01*
X67314047Y-91003333D01*
X67361666Y-91050952D01*
X67409285Y-91146190D01*
X67409285Y-91336666D01*
X67361666Y-91431904D01*
X66790238Y-91812857D02*
X66742619Y-91908095D01*
X66742619Y-92098571D01*
X66790238Y-92193809D01*
X66885476Y-92241428D01*
X66933095Y-92241428D01*
X67028333Y-92193809D01*
X67075952Y-92098571D01*
X67075952Y-91955714D01*
X67123571Y-91860476D01*
X67218809Y-91812857D01*
X67266428Y-91812857D01*
X67361666Y-91860476D01*
X67409285Y-91955714D01*
X67409285Y-92098571D01*
X67361666Y-92193809D01*
X66742619Y-93908095D02*
X66742619Y-93431904D01*
X67742619Y-93431904D01*
X67409285Y-94098571D02*
X67409285Y-94479523D01*
X67742619Y-94241428D02*
X66885476Y-94241428D01*
X66790238Y-94289047D01*
X66742619Y-94384285D01*
X66742619Y-94479523D01*
X66742619Y-95241428D02*
X67742619Y-95241428D01*
X66790238Y-95241428D02*
X66742619Y-95146190D01*
X66742619Y-94955714D01*
X66790238Y-94860476D01*
X66837857Y-94812857D01*
X66933095Y-94765238D01*
X67218809Y-94765238D01*
X67314047Y-94812857D01*
X67361666Y-94860476D01*
X67409285Y-94955714D01*
X67409285Y-95146190D01*
X67361666Y-95241428D01*
X67647380Y-96431904D02*
X67695000Y-96479523D01*
X67742619Y-96574761D01*
X67742619Y-96812857D01*
X67695000Y-96908095D01*
X67647380Y-96955714D01*
X67552142Y-97003333D01*
X67456904Y-97003333D01*
X67314047Y-96955714D01*
X66742619Y-96384285D01*
X66742619Y-97003333D01*
X67742619Y-97622380D02*
X67742619Y-97717619D01*
X67695000Y-97812857D01*
X67647380Y-97860476D01*
X67552142Y-97908095D01*
X67361666Y-97955714D01*
X67123571Y-97955714D01*
X66933095Y-97908095D01*
X66837857Y-97860476D01*
X66790238Y-97812857D01*
X66742619Y-97717619D01*
X66742619Y-97622380D01*
X66790238Y-97527142D01*
X66837857Y-97479523D01*
X66933095Y-97431904D01*
X67123571Y-97384285D01*
X67361666Y-97384285D01*
X67552142Y-97431904D01*
X67647380Y-97479523D01*
X67695000Y-97527142D01*
X67742619Y-97622380D01*
X67647380Y-98336666D02*
X67695000Y-98384285D01*
X67742619Y-98479523D01*
X67742619Y-98717619D01*
X67695000Y-98812857D01*
X67647380Y-98860476D01*
X67552142Y-98908095D01*
X67456904Y-98908095D01*
X67314047Y-98860476D01*
X66742619Y-98289047D01*
X66742619Y-98908095D01*
X67647380Y-99289047D02*
X67695000Y-99336666D01*
X67742619Y-99431904D01*
X67742619Y-99670000D01*
X67695000Y-99765238D01*
X67647380Y-99812857D01*
X67552142Y-99860476D01*
X67456904Y-99860476D01*
X67314047Y-99812857D01*
X66742619Y-99241428D01*
X66742619Y-99860476D01*
D11*
X116713047Y-101925428D02*
X117474952Y-101925428D01*
X117094000Y-102306380D02*
X117094000Y-101544476D01*
%TO.C,J1*%
X77202380Y-72333333D02*
X77916666Y-72333333D01*
X78059523Y-72380952D01*
X78154761Y-72476190D01*
X78202380Y-72619047D01*
X78202380Y-72714285D01*
X78202380Y-71333333D02*
X78202380Y-71904761D01*
X78202380Y-71619047D02*
X77202380Y-71619047D01*
X77345238Y-71714285D01*
X77440476Y-71809523D01*
X77488095Y-71904761D01*
%TO.C,R2*%
X112212380Y-100750666D02*
X111736190Y-101084000D01*
X112212380Y-101322095D02*
X111212380Y-101322095D01*
X111212380Y-100941142D01*
X111260000Y-100845904D01*
X111307619Y-100798285D01*
X111402857Y-100750666D01*
X111545714Y-100750666D01*
X111640952Y-100798285D01*
X111688571Y-100845904D01*
X111736190Y-100941142D01*
X111736190Y-101322095D01*
X111307619Y-100369714D02*
X111260000Y-100322095D01*
X111212380Y-100226857D01*
X111212380Y-99988761D01*
X111260000Y-99893523D01*
X111307619Y-99845904D01*
X111402857Y-99798285D01*
X111498095Y-99798285D01*
X111640952Y-99845904D01*
X112212380Y-100417333D01*
X112212380Y-99798285D01*
%TO.C,J4*%
X119552380Y-85333333D02*
X120266666Y-85333333D01*
X120409523Y-85380952D01*
X120504761Y-85476190D01*
X120552380Y-85619047D01*
X120552380Y-85714285D01*
X119885714Y-84428571D02*
X120552380Y-84428571D01*
X119504761Y-84666666D02*
X120219047Y-84904761D01*
X120219047Y-84285714D01*
%TO.C,R4*%
X113652380Y-73066666D02*
X113176190Y-73400000D01*
X113652380Y-73638095D02*
X112652380Y-73638095D01*
X112652380Y-73257142D01*
X112700000Y-73161904D01*
X112747619Y-73114285D01*
X112842857Y-73066666D01*
X112985714Y-73066666D01*
X113080952Y-73114285D01*
X113128571Y-73161904D01*
X113176190Y-73257142D01*
X113176190Y-73638095D01*
X112985714Y-72209523D02*
X113652380Y-72209523D01*
X112604761Y-72447619D02*
X113319047Y-72685714D01*
X113319047Y-72066666D01*
%TO.C,C2*%
X75083333Y-115927142D02*
X75035714Y-115974761D01*
X74892857Y-116022380D01*
X74797619Y-116022380D01*
X74654761Y-115974761D01*
X74559523Y-115879523D01*
X74511904Y-115784285D01*
X74464285Y-115593809D01*
X74464285Y-115450952D01*
X74511904Y-115260476D01*
X74559523Y-115165238D01*
X74654761Y-115070000D01*
X74797619Y-115022380D01*
X74892857Y-115022380D01*
X75035714Y-115070000D01*
X75083333Y-115117619D01*
X75464285Y-115117619D02*
X75511904Y-115070000D01*
X75607142Y-115022380D01*
X75845238Y-115022380D01*
X75940476Y-115070000D01*
X75988095Y-115117619D01*
X76035714Y-115212857D01*
X76035714Y-115308095D01*
X75988095Y-115450952D01*
X75416666Y-116022380D01*
X76035714Y-116022380D01*
%TO.C,R3*%
X112392380Y-79916666D02*
X111916190Y-80250000D01*
X112392380Y-80488095D02*
X111392380Y-80488095D01*
X111392380Y-80107142D01*
X111440000Y-80011904D01*
X111487619Y-79964285D01*
X111582857Y-79916666D01*
X111725714Y-79916666D01*
X111820952Y-79964285D01*
X111868571Y-80011904D01*
X111916190Y-80107142D01*
X111916190Y-80488095D01*
X111392380Y-79583333D02*
X111392380Y-78964285D01*
X111773333Y-79297619D01*
X111773333Y-79154761D01*
X111820952Y-79059523D01*
X111868571Y-79011904D01*
X111963809Y-78964285D01*
X112201904Y-78964285D01*
X112297142Y-79011904D01*
X112344761Y-79059523D01*
X112392380Y-79154761D01*
X112392380Y-79440476D01*
X112344761Y-79535714D01*
X112297142Y-79583333D01*
%TO.C,J3*%
X119572380Y-72833333D02*
X120286666Y-72833333D01*
X120429523Y-72880952D01*
X120524761Y-72976190D01*
X120572380Y-73119047D01*
X120572380Y-73214285D01*
X119572380Y-72452380D02*
X119572380Y-71833333D01*
X119953333Y-72166666D01*
X119953333Y-72023809D01*
X120000952Y-71928571D01*
X120048571Y-71880952D01*
X120143809Y-71833333D01*
X120381904Y-71833333D01*
X120477142Y-71880952D01*
X120524761Y-71928571D01*
X120572380Y-72023809D01*
X120572380Y-72309523D01*
X120524761Y-72404761D01*
X120477142Y-72452380D01*
%TO.C,R1*%
X111652380Y-65916666D02*
X111176190Y-66250000D01*
X111652380Y-66488095D02*
X110652380Y-66488095D01*
X110652380Y-66107142D01*
X110700000Y-66011904D01*
X110747619Y-65964285D01*
X110842857Y-65916666D01*
X110985714Y-65916666D01*
X111080952Y-65964285D01*
X111128571Y-66011904D01*
X111176190Y-66107142D01*
X111176190Y-66488095D01*
X111652380Y-64964285D02*
X111652380Y-65535714D01*
X111652380Y-65250000D02*
X110652380Y-65250000D01*
X110795238Y-65345238D01*
X110890476Y-65440476D01*
X110938095Y-65535714D01*
%TO.C,C3*%
X78573333Y-90527142D02*
X78525714Y-90574761D01*
X78382857Y-90622380D01*
X78287619Y-90622380D01*
X78144761Y-90574761D01*
X78049523Y-90479523D01*
X78001904Y-90384285D01*
X77954285Y-90193809D01*
X77954285Y-90050952D01*
X78001904Y-89860476D01*
X78049523Y-89765238D01*
X78144761Y-89670000D01*
X78287619Y-89622380D01*
X78382857Y-89622380D01*
X78525714Y-89670000D01*
X78573333Y-89717619D01*
X78906666Y-89622380D02*
X79525714Y-89622380D01*
X79192380Y-90003333D01*
X79335238Y-90003333D01*
X79430476Y-90050952D01*
X79478095Y-90098571D01*
X79525714Y-90193809D01*
X79525714Y-90431904D01*
X79478095Y-90527142D01*
X79430476Y-90574761D01*
X79335238Y-90622380D01*
X79049523Y-90622380D01*
X78954285Y-90574761D01*
X78906666Y-90527142D01*
%TO.C,U2*%
X94488095Y-71207380D02*
X94488095Y-72016904D01*
X94535714Y-72112142D01*
X94583333Y-72159761D01*
X94678571Y-72207380D01*
X94869047Y-72207380D01*
X94964285Y-72159761D01*
X95011904Y-72112142D01*
X95059523Y-72016904D01*
X95059523Y-71207380D01*
X95488095Y-71302619D02*
X95535714Y-71255000D01*
X95630952Y-71207380D01*
X95869047Y-71207380D01*
X95964285Y-71255000D01*
X96011904Y-71302619D01*
X96059523Y-71397857D01*
X96059523Y-71493095D01*
X96011904Y-71635952D01*
X95440476Y-72207380D01*
X96059523Y-72207380D01*
%TO.C,J2*%
X77182380Y-85383333D02*
X77896666Y-85383333D01*
X78039523Y-85430952D01*
X78134761Y-85526190D01*
X78182380Y-85669047D01*
X78182380Y-85764285D01*
X77277619Y-84954761D02*
X77230000Y-84907142D01*
X77182380Y-84811904D01*
X77182380Y-84573809D01*
X77230000Y-84478571D01*
X77277619Y-84430952D01*
X77372857Y-84383333D01*
X77468095Y-84383333D01*
X77610952Y-84430952D01*
X78182380Y-85002380D01*
X78182380Y-84383333D01*
%TO.C,U5*%
X79217139Y-102761904D02*
X80026663Y-102761904D01*
X80121901Y-102714285D01*
X80169520Y-102666666D01*
X80217139Y-102571428D01*
X80217139Y-102380952D01*
X80169520Y-102285714D01*
X80121901Y-102238095D01*
X80026663Y-102190476D01*
X79217139Y-102190476D01*
X79217139Y-101238095D02*
X79217139Y-101714285D01*
X79693330Y-101761904D01*
X79645711Y-101714285D01*
X79598092Y-101619047D01*
X79598092Y-101380952D01*
X79645711Y-101285714D01*
X79693330Y-101238095D01*
X79788568Y-101190476D01*
X80026663Y-101190476D01*
X80121901Y-101238095D01*
X80169520Y-101285714D01*
X80217139Y-101380952D01*
X80217139Y-101619047D01*
X80169520Y-101714285D01*
X80121901Y-101761904D01*
%TO.C,U4*%
X114738095Y-113572380D02*
X114738095Y-114381904D01*
X114785714Y-114477142D01*
X114833333Y-114524761D01*
X114928571Y-114572380D01*
X115119047Y-114572380D01*
X115214285Y-114524761D01*
X115261904Y-114477142D01*
X115309523Y-114381904D01*
X115309523Y-113572380D01*
X116214285Y-113905714D02*
X116214285Y-114572380D01*
X115976190Y-113524761D02*
X115738095Y-114239047D01*
X116357142Y-114239047D01*
%TO.C,C1*%
X114403142Y-100750666D02*
X114450761Y-100798285D01*
X114498380Y-100941142D01*
X114498380Y-101036380D01*
X114450761Y-101179238D01*
X114355523Y-101274476D01*
X114260285Y-101322095D01*
X114069809Y-101369714D01*
X113926952Y-101369714D01*
X113736476Y-101322095D01*
X113641238Y-101274476D01*
X113546000Y-101179238D01*
X113498380Y-101036380D01*
X113498380Y-100941142D01*
X113546000Y-100798285D01*
X113593619Y-100750666D01*
X114498380Y-99798285D02*
X114498380Y-100369714D01*
X114498380Y-100084000D02*
X113498380Y-100084000D01*
X113641238Y-100179238D01*
X113736476Y-100274476D01*
X113784095Y-100369714D01*
%TO.C,U1*%
X94488095Y-67397380D02*
X94488095Y-68206904D01*
X94535714Y-68302142D01*
X94583333Y-68349761D01*
X94678571Y-68397380D01*
X94869047Y-68397380D01*
X94964285Y-68349761D01*
X95011904Y-68302142D01*
X95059523Y-68206904D01*
X95059523Y-67397380D01*
X96059523Y-68397380D02*
X95488095Y-68397380D01*
X95773809Y-68397380D02*
X95773809Y-67397380D01*
X95678571Y-67540238D01*
X95583333Y-67635476D01*
X95488095Y-67683095D01*
X105186180Y-112647720D02*
X105152846Y-112681053D01*
X105052846Y-112714386D01*
X104986180Y-112714386D01*
X104886180Y-112681053D01*
X104819513Y-112614386D01*
X104786180Y-112547720D01*
X104752846Y-112414386D01*
X104752846Y-112314386D01*
X104786180Y-112181053D01*
X104819513Y-112114386D01*
X104886180Y-112047720D01*
X104986180Y-112014386D01*
X105052846Y-112014386D01*
X105152846Y-112047720D01*
X105186180Y-112081053D01*
X105819513Y-112714386D02*
X105486180Y-112714386D01*
X105486180Y-112014386D01*
X106052846Y-112714386D02*
X106052846Y-112014386D01*
X106452846Y-112714386D02*
X106152846Y-112314386D01*
X106452846Y-112014386D02*
X106052846Y-112414386D01*
X84064037Y-66130100D02*
X84683084Y-66130100D01*
X84349751Y-66511053D01*
X84492608Y-66511053D01*
X84587846Y-66558672D01*
X84635465Y-66606291D01*
X84683084Y-66701529D01*
X84683084Y-66939624D01*
X84635465Y-67034862D01*
X84587846Y-67082481D01*
X84492608Y-67130100D01*
X84206894Y-67130100D01*
X84111656Y-67082481D01*
X84064037Y-67034862D01*
X84968799Y-66130100D02*
X85302132Y-67130100D01*
X85635465Y-66130100D01*
X85873560Y-66130100D02*
X86492608Y-66130100D01*
X86159275Y-66511053D01*
X86302132Y-66511053D01*
X86397370Y-66558672D01*
X86444989Y-66606291D01*
X86492608Y-66701529D01*
X86492608Y-66939624D01*
X86444989Y-67034862D01*
X86397370Y-67082481D01*
X86302132Y-67130100D01*
X86016418Y-67130100D01*
X85921180Y-67082481D01*
X85873560Y-67034862D01*
X104300465Y-66177720D02*
X104205227Y-66130100D01*
X104062370Y-66130100D01*
X103919513Y-66177720D01*
X103824275Y-66272958D01*
X103776656Y-66368196D01*
X103729037Y-66558672D01*
X103729037Y-66701529D01*
X103776656Y-66892005D01*
X103824275Y-66987243D01*
X103919513Y-67082481D01*
X104062370Y-67130100D01*
X104157608Y-67130100D01*
X104300465Y-67082481D01*
X104348084Y-67034862D01*
X104348084Y-66701529D01*
X104157608Y-66701529D01*
X104776656Y-67130100D02*
X104776656Y-66130100D01*
X105348084Y-67130100D01*
X105348084Y-66130100D01*
X105824275Y-67130100D02*
X105824275Y-66130100D01*
X106062370Y-66130100D01*
X106205227Y-66177720D01*
X106300465Y-66272958D01*
X106348084Y-66368196D01*
X106395703Y-66558672D01*
X106395703Y-66701529D01*
X106348084Y-66892005D01*
X106300465Y-66987243D01*
X106205227Y-67082481D01*
X106062370Y-67130100D01*
X105824275Y-67130100D01*
X84631785Y-112101380D02*
X84155595Y-112101380D01*
X84107976Y-112577571D01*
X84155595Y-112529952D01*
X84250833Y-112482333D01*
X84488928Y-112482333D01*
X84584166Y-112529952D01*
X84631785Y-112577571D01*
X84679404Y-112672809D01*
X84679404Y-112910904D01*
X84631785Y-113006142D01*
X84584166Y-113053761D01*
X84488928Y-113101380D01*
X84250833Y-113101380D01*
X84155595Y-113053761D01*
X84107976Y-113006142D01*
X84965119Y-112101380D02*
X85298452Y-113101380D01*
X85631785Y-112101380D01*
%TO.C,U3*%
X118832380Y-100329904D02*
X119641904Y-100329904D01*
X119737142Y-100282285D01*
X119784761Y-100234666D01*
X119832380Y-100139428D01*
X119832380Y-99948952D01*
X119784761Y-99853714D01*
X119737142Y-99806095D01*
X119641904Y-99758476D01*
X118832380Y-99758476D01*
X118832380Y-99377523D02*
X118832380Y-98758476D01*
X119213333Y-99091809D01*
X119213333Y-98948952D01*
X119260952Y-98853714D01*
X119308571Y-98806095D01*
X119403809Y-98758476D01*
X119641904Y-98758476D01*
X119737142Y-98806095D01*
X119784761Y-98853714D01*
X119832380Y-98948952D01*
X119832380Y-99234666D01*
X119784761Y-99329904D01*
X119737142Y-99377523D01*
D12*
%TO.C,J1*%
X74930000Y-77110000D02*
X74930000Y-77610000D01*
X76640000Y-67390000D02*
X72620000Y-67390000D01*
X74120000Y-68390000D02*
X72620000Y-68390000D01*
X76140000Y-77110000D02*
X74930000Y-77110000D01*
X74120000Y-76610000D02*
X72620000Y-76610000D01*
X76140000Y-67890000D02*
X76140000Y-77110000D01*
X72620000Y-77610000D02*
X76640000Y-77610000D01*
X72320000Y-67090000D02*
X72320000Y-69590000D01*
X72620000Y-67390000D02*
X72620000Y-77610000D01*
X74120000Y-77610000D02*
X74120000Y-76610000D01*
X76640000Y-77610000D02*
X76640000Y-67390000D01*
X74820000Y-67090000D02*
X72320000Y-67090000D01*
X74930000Y-67390000D02*
X74930000Y-67890000D01*
X74120000Y-67390000D02*
X74120000Y-68390000D01*
X74930000Y-67890000D02*
X76140000Y-67890000D01*
%TO.C,R2*%
X112495000Y-97292936D02*
X112495000Y-97747064D01*
X111025000Y-97292936D02*
X111025000Y-97747064D01*
%TO.C,J4*%
X117190000Y-79590000D02*
X114690000Y-79590000D01*
X114990000Y-79890000D02*
X114990000Y-90110000D01*
X116490000Y-89110000D02*
X114990000Y-89110000D01*
X118510000Y-80390000D02*
X118510000Y-89610000D01*
X119010000Y-79890000D02*
X114990000Y-79890000D01*
X116490000Y-79890000D02*
X116490000Y-80890000D01*
X116490000Y-90110000D02*
X116490000Y-89110000D01*
X114990000Y-90110000D02*
X119010000Y-90110000D01*
X117300000Y-79890000D02*
X117300000Y-80390000D01*
X117300000Y-80390000D02*
X118510000Y-80390000D01*
X117300000Y-89610000D02*
X117300000Y-90110000D01*
X118510000Y-89610000D02*
X117300000Y-89610000D01*
X119010000Y-90110000D02*
X119010000Y-79890000D01*
X116490000Y-80890000D02*
X114990000Y-80890000D01*
X114690000Y-79590000D02*
X114690000Y-82090000D01*
%TO.C,R4*%
X111935000Y-72772936D02*
X111935000Y-73227064D01*
X110465000Y-72772936D02*
X110465000Y-73227064D01*
%TO.C,C2*%
X75650000Y-107794000D02*
X75650000Y-109960000D01*
X78251000Y-109738000D02*
X78251000Y-112262000D01*
X76531000Y-112040000D02*
X76531000Y-113970000D01*
X77051000Y-108310000D02*
X77051000Y-109960000D01*
X78411000Y-110198000D02*
X78411000Y-111802000D01*
X78131000Y-109491000D02*
X78131000Y-112509000D01*
X78211000Y-109650000D02*
X78211000Y-112350000D01*
X75770000Y-107811000D02*
X75770000Y-109960000D01*
X76011000Y-112040000D02*
X76011000Y-114141000D01*
X78091000Y-109419000D02*
X78091000Y-112581000D01*
X76611000Y-112040000D02*
X76611000Y-113934000D01*
X76051000Y-112040000D02*
X76051000Y-114131000D01*
X76171000Y-107902000D02*
X76171000Y-109960000D01*
X76571000Y-112040000D02*
X76571000Y-113952000D01*
X77131000Y-112040000D02*
X77131000Y-113636000D01*
X75850000Y-107825000D02*
X75850000Y-109960000D01*
X78171000Y-109568000D02*
X78171000Y-112432000D01*
X75930000Y-112040000D02*
X75930000Y-114159000D01*
X76211000Y-112040000D02*
X76211000Y-114086000D01*
X77011000Y-108284000D02*
X77011000Y-109960000D01*
X75690000Y-107799000D02*
X75690000Y-109960000D01*
X76451000Y-107998000D02*
X76451000Y-109960000D01*
X76251000Y-112040000D02*
X76251000Y-114074000D01*
X77131000Y-108364000D02*
X77131000Y-109960000D01*
X77171000Y-112040000D02*
X77171000Y-113607000D01*
X76251000Y-107926000D02*
X76251000Y-109960000D01*
X75290000Y-107770000D02*
X75290000Y-114230000D01*
X76491000Y-108014000D02*
X76491000Y-109960000D01*
X76371000Y-107967000D02*
X76371000Y-109960000D01*
X76611000Y-108066000D02*
X76611000Y-109960000D01*
X77331000Y-112040000D02*
X77331000Y-113484000D01*
X77171000Y-108393000D02*
X77171000Y-109960000D01*
X77931000Y-109166000D02*
X77931000Y-112834000D01*
X75850000Y-112040000D02*
X75850000Y-114175000D01*
X77451000Y-112040000D02*
X77451000Y-113380000D01*
X75770000Y-112040000D02*
X75770000Y-114189000D01*
X76731000Y-108124000D02*
X76731000Y-109960000D01*
X76131000Y-107890000D02*
X76131000Y-109960000D01*
X78371000Y-110060000D02*
X78371000Y-111940000D01*
X75650000Y-112040000D02*
X75650000Y-114206000D01*
X77371000Y-112040000D02*
X77371000Y-113450000D01*
X76891000Y-112040000D02*
X76891000Y-113790000D01*
X72064759Y-108846000D02*
X72064759Y-109476000D01*
X75610000Y-107789000D02*
X75610000Y-109960000D01*
X77411000Y-112040000D02*
X77411000Y-113416000D01*
X76331000Y-107953000D02*
X76331000Y-109960000D01*
X76011000Y-107859000D02*
X76011000Y-109960000D01*
X76651000Y-112040000D02*
X76651000Y-113916000D01*
X76931000Y-112040000D02*
X76931000Y-113766000D01*
X76771000Y-112040000D02*
X76771000Y-113856000D01*
X76811000Y-108166000D02*
X76811000Y-109960000D01*
X77331000Y-108516000D02*
X77331000Y-109960000D01*
X76531000Y-108030000D02*
X76531000Y-109960000D01*
X75730000Y-112040000D02*
X75730000Y-114195000D01*
X77531000Y-112040000D02*
X77531000Y-113305000D01*
X77531000Y-108695000D02*
X77531000Y-109960000D01*
X76651000Y-108084000D02*
X76651000Y-109960000D01*
X71749759Y-109161000D02*
X72379759Y-109161000D01*
X77971000Y-109224000D02*
X77971000Y-112776000D01*
X77491000Y-108657000D02*
X77491000Y-109960000D01*
X76851000Y-112040000D02*
X76851000Y-113812000D01*
X77251000Y-108452000D02*
X77251000Y-109960000D01*
X78491000Y-110598000D02*
X78491000Y-111402000D01*
X77691000Y-108863000D02*
X77691000Y-113137000D01*
X76091000Y-107879000D02*
X76091000Y-109960000D01*
X78291000Y-109835000D02*
X78291000Y-112165000D01*
X77291000Y-108484000D02*
X77291000Y-109960000D01*
X75610000Y-112040000D02*
X75610000Y-114211000D01*
X76931000Y-108234000D02*
X76931000Y-109960000D01*
X75971000Y-107850000D02*
X75971000Y-109960000D01*
X75810000Y-112040000D02*
X75810000Y-114182000D01*
X77571000Y-108735000D02*
X77571000Y-113265000D01*
X77251000Y-112040000D02*
X77251000Y-113548000D01*
X75890000Y-112040000D02*
X75890000Y-114167000D01*
X77611000Y-108776000D02*
X77611000Y-113224000D01*
X76051000Y-107869000D02*
X76051000Y-109960000D01*
X76131000Y-112040000D02*
X76131000Y-114110000D01*
X75930000Y-107841000D02*
X75930000Y-109960000D01*
X75370000Y-107772000D02*
X75370000Y-114228000D01*
X77211000Y-108422000D02*
X77211000Y-109960000D01*
X77491000Y-112040000D02*
X77491000Y-113343000D01*
X77291000Y-112040000D02*
X77291000Y-113516000D01*
X77411000Y-108584000D02*
X77411000Y-109960000D01*
X76691000Y-112040000D02*
X76691000Y-113896000D01*
X76411000Y-107982000D02*
X76411000Y-109960000D01*
X75730000Y-107805000D02*
X75730000Y-109960000D01*
X75490000Y-112040000D02*
X75490000Y-114222000D01*
X77211000Y-112040000D02*
X77211000Y-113578000D01*
X76371000Y-112040000D02*
X76371000Y-114033000D01*
X75250000Y-107770000D02*
X75250000Y-114230000D01*
X77091000Y-112040000D02*
X77091000Y-113664000D01*
X75450000Y-107776000D02*
X75450000Y-114224000D01*
X75570000Y-112040000D02*
X75570000Y-114215000D01*
X75530000Y-107782000D02*
X75530000Y-109960000D01*
X75971000Y-112040000D02*
X75971000Y-114150000D01*
X78011000Y-109286000D02*
X78011000Y-112714000D01*
X76691000Y-108104000D02*
X76691000Y-109960000D01*
X76091000Y-112040000D02*
X76091000Y-114121000D01*
X76411000Y-112040000D02*
X76411000Y-114018000D01*
X77051000Y-112040000D02*
X77051000Y-113690000D01*
X75410000Y-107773000D02*
X75410000Y-114227000D01*
X75690000Y-112040000D02*
X75690000Y-114201000D01*
X77771000Y-108956000D02*
X77771000Y-113044000D01*
X78051000Y-109350000D02*
X78051000Y-112650000D01*
X78331000Y-109941000D02*
X78331000Y-112059000D01*
X76971000Y-112040000D02*
X76971000Y-113742000D01*
X76891000Y-108210000D02*
X76891000Y-109960000D01*
X76971000Y-108258000D02*
X76971000Y-109960000D01*
X76571000Y-108048000D02*
X76571000Y-109960000D01*
X76851000Y-108188000D02*
X76851000Y-109960000D01*
X76451000Y-112040000D02*
X76451000Y-114002000D01*
X77371000Y-108550000D02*
X77371000Y-109960000D01*
X75530000Y-112040000D02*
X75530000Y-114218000D01*
X75890000Y-107833000D02*
X75890000Y-109960000D01*
X76291000Y-107939000D02*
X76291000Y-109960000D01*
X77091000Y-108336000D02*
X77091000Y-109960000D01*
X77651000Y-108818000D02*
X77651000Y-113182000D01*
X75330000Y-107770000D02*
X75330000Y-114230000D01*
X75570000Y-107785000D02*
X75570000Y-109960000D01*
X76491000Y-112040000D02*
X76491000Y-113986000D01*
X75490000Y-107778000D02*
X75490000Y-109960000D01*
X77811000Y-109005000D02*
X77811000Y-112995000D01*
X76291000Y-112040000D02*
X76291000Y-114061000D01*
X75810000Y-107818000D02*
X75810000Y-109960000D01*
X77891000Y-109110000D02*
X77891000Y-112890000D01*
X76771000Y-108144000D02*
X76771000Y-109960000D01*
X76331000Y-112040000D02*
X76331000Y-114047000D01*
X76211000Y-107914000D02*
X76211000Y-109960000D01*
X78451000Y-110367000D02*
X78451000Y-111633000D01*
X77851000Y-109056000D02*
X77851000Y-112944000D01*
X76811000Y-112040000D02*
X76811000Y-113834000D01*
X77731000Y-108908000D02*
X77731000Y-113092000D01*
X77451000Y-108620000D02*
X77451000Y-109960000D01*
X76171000Y-112040000D02*
X76171000Y-114098000D01*
X77011000Y-112040000D02*
X77011000Y-113716000D01*
X76731000Y-112040000D02*
X76731000Y-113876000D01*
X78520000Y-111000000D02*
G75*
G03*
X78520000Y-111000000I-3270000J0D01*
G01*
%TO.C,R3*%
X112675000Y-82927064D02*
X112675000Y-82472936D01*
X111205000Y-82927064D02*
X111205000Y-82472936D01*
%TO.C,J3*%
X117320000Y-67890000D02*
X118530000Y-67890000D01*
X116510000Y-68390000D02*
X115010000Y-68390000D01*
X117320000Y-67390000D02*
X117320000Y-67890000D01*
X118530000Y-67890000D02*
X118530000Y-77110000D01*
X116510000Y-67390000D02*
X116510000Y-68390000D01*
X119030000Y-67390000D02*
X115010000Y-67390000D01*
X117320000Y-77110000D02*
X117320000Y-77610000D01*
X117210000Y-67090000D02*
X114710000Y-67090000D01*
X115010000Y-67390000D02*
X115010000Y-77610000D01*
X118530000Y-77110000D02*
X117320000Y-77110000D01*
X119030000Y-77610000D02*
X119030000Y-67390000D01*
X115010000Y-77610000D02*
X119030000Y-77610000D01*
X116510000Y-76610000D02*
X115010000Y-76610000D01*
X114710000Y-67090000D02*
X114710000Y-69590000D01*
X116510000Y-77610000D02*
X116510000Y-76610000D01*
%TO.C,R1*%
X110465000Y-68372936D02*
X110465000Y-68827064D01*
X111935000Y-68372936D02*
X111935000Y-68827064D01*
%TO.C,C3*%
X76860000Y-95020000D02*
X76860000Y-97139000D01*
X76580000Y-90774000D02*
X76580000Y-92940000D01*
X77701000Y-95020000D02*
X77701000Y-96836000D01*
X79141000Y-92630000D02*
X79141000Y-95330000D01*
X77661000Y-95020000D02*
X77661000Y-96856000D01*
X77701000Y-91124000D02*
X77701000Y-92940000D01*
X76901000Y-95020000D02*
X76901000Y-97130000D01*
X78141000Y-91402000D02*
X78141000Y-92940000D01*
X76540000Y-90769000D02*
X76540000Y-92940000D01*
X78141000Y-95020000D02*
X78141000Y-96558000D01*
X77341000Y-95020000D02*
X77341000Y-96998000D01*
X78461000Y-91675000D02*
X78461000Y-92940000D01*
X77261000Y-95020000D02*
X77261000Y-97027000D01*
X76780000Y-95020000D02*
X76780000Y-97155000D01*
X76540000Y-95020000D02*
X76540000Y-97191000D01*
X77021000Y-95020000D02*
X77021000Y-97101000D01*
X77781000Y-91168000D02*
X77781000Y-92940000D01*
X77381000Y-90978000D02*
X77381000Y-92940000D01*
X78741000Y-91985000D02*
X78741000Y-95975000D01*
X78781000Y-92036000D02*
X78781000Y-95924000D01*
X76820000Y-95020000D02*
X76820000Y-97147000D01*
X77261000Y-90933000D02*
X77261000Y-92940000D01*
X77421000Y-90994000D02*
X77421000Y-92940000D01*
X77621000Y-91084000D02*
X77621000Y-92940000D01*
X79181000Y-92718000D02*
X79181000Y-95242000D01*
X77141000Y-90894000D02*
X77141000Y-92940000D01*
X78941000Y-92266000D02*
X78941000Y-95694000D01*
X78301000Y-91530000D02*
X78301000Y-92940000D01*
X77581000Y-91064000D02*
X77581000Y-92940000D01*
X76740000Y-90798000D02*
X76740000Y-92940000D01*
X77541000Y-95020000D02*
X77541000Y-96914000D01*
X78061000Y-91344000D02*
X78061000Y-92940000D01*
X77181000Y-95020000D02*
X77181000Y-97054000D01*
X78461000Y-95020000D02*
X78461000Y-96285000D01*
X77061000Y-95020000D02*
X77061000Y-97090000D01*
X78301000Y-95020000D02*
X78301000Y-96430000D01*
X77541000Y-91046000D02*
X77541000Y-92940000D01*
X77181000Y-90906000D02*
X77181000Y-92940000D01*
X76340000Y-90753000D02*
X76340000Y-97207000D01*
X76740000Y-95020000D02*
X76740000Y-97162000D01*
X76941000Y-95020000D02*
X76941000Y-97121000D01*
X78181000Y-95020000D02*
X78181000Y-96528000D01*
X76941000Y-90839000D02*
X76941000Y-92940000D01*
X78541000Y-91756000D02*
X78541000Y-96204000D01*
X76820000Y-90813000D02*
X76820000Y-92940000D01*
X76981000Y-95020000D02*
X76981000Y-97111000D01*
X79061000Y-92471000D02*
X79061000Y-95489000D01*
X77661000Y-91104000D02*
X77661000Y-92940000D01*
X76620000Y-90779000D02*
X76620000Y-92940000D01*
X78101000Y-91373000D02*
X78101000Y-92940000D01*
X77381000Y-95020000D02*
X77381000Y-96982000D01*
X77821000Y-95020000D02*
X77821000Y-96770000D01*
X77301000Y-90947000D02*
X77301000Y-92940000D01*
X77021000Y-90859000D02*
X77021000Y-92940000D01*
X76420000Y-95020000D02*
X76420000Y-97202000D01*
X78821000Y-92090000D02*
X78821000Y-95870000D01*
X78981000Y-92330000D02*
X78981000Y-95630000D01*
X79021000Y-92399000D02*
X79021000Y-95561000D01*
X79221000Y-92815000D02*
X79221000Y-95145000D01*
X76660000Y-90785000D02*
X76660000Y-92940000D01*
X78221000Y-95020000D02*
X78221000Y-96496000D01*
X77981000Y-91290000D02*
X77981000Y-92940000D01*
X78701000Y-91936000D02*
X78701000Y-96024000D01*
X77141000Y-95020000D02*
X77141000Y-97066000D01*
X77221000Y-95020000D02*
X77221000Y-97041000D01*
X78901000Y-92204000D02*
X78901000Y-95756000D01*
X78661000Y-91888000D02*
X78661000Y-96072000D01*
X77501000Y-91028000D02*
X77501000Y-92940000D01*
X76580000Y-95020000D02*
X76580000Y-97186000D01*
X77101000Y-95020000D02*
X77101000Y-97078000D01*
X79381000Y-93347000D02*
X79381000Y-94613000D01*
X72994759Y-91826000D02*
X72994759Y-92456000D01*
X72679759Y-92141000D02*
X73309759Y-92141000D01*
X77981000Y-95020000D02*
X77981000Y-96670000D01*
X77741000Y-95020000D02*
X77741000Y-96814000D01*
X77941000Y-95020000D02*
X77941000Y-96696000D01*
X77581000Y-95020000D02*
X77581000Y-96896000D01*
X76700000Y-95020000D02*
X76700000Y-97169000D01*
X76180000Y-90750000D02*
X76180000Y-97210000D01*
X76220000Y-90750000D02*
X76220000Y-97210000D01*
X77461000Y-91010000D02*
X77461000Y-92940000D01*
X76860000Y-90821000D02*
X76860000Y-92940000D01*
X77781000Y-95020000D02*
X77781000Y-96792000D01*
X76901000Y-90830000D02*
X76901000Y-92940000D01*
X77901000Y-91238000D02*
X77901000Y-92940000D01*
X78341000Y-91564000D02*
X78341000Y-92940000D01*
X76420000Y-90758000D02*
X76420000Y-92940000D01*
X77061000Y-90870000D02*
X77061000Y-92940000D01*
X78021000Y-95020000D02*
X78021000Y-96644000D01*
X77101000Y-90882000D02*
X77101000Y-92940000D01*
X78261000Y-91496000D02*
X78261000Y-92940000D01*
X78181000Y-91432000D02*
X78181000Y-92940000D01*
X77861000Y-95020000D02*
X77861000Y-96746000D01*
X78261000Y-95020000D02*
X78261000Y-96464000D01*
X76780000Y-90805000D02*
X76780000Y-92940000D01*
X76300000Y-90752000D02*
X76300000Y-97208000D01*
X78421000Y-95020000D02*
X78421000Y-96323000D01*
X78061000Y-95020000D02*
X78061000Y-96616000D01*
X76380000Y-90756000D02*
X76380000Y-97204000D01*
X77621000Y-95020000D02*
X77621000Y-96876000D01*
X78381000Y-95020000D02*
X78381000Y-96360000D01*
X78341000Y-95020000D02*
X78341000Y-96396000D01*
X78021000Y-91316000D02*
X78021000Y-92940000D01*
X76260000Y-90750000D02*
X76260000Y-97210000D01*
X77461000Y-95020000D02*
X77461000Y-96950000D01*
X78421000Y-91637000D02*
X78421000Y-92940000D01*
X79261000Y-92921000D02*
X79261000Y-95039000D01*
X76660000Y-95020000D02*
X76660000Y-97175000D01*
X79341000Y-93178000D02*
X79341000Y-94782000D01*
X78861000Y-92146000D02*
X78861000Y-95814000D01*
X78221000Y-91464000D02*
X78221000Y-92940000D01*
X77501000Y-95020000D02*
X77501000Y-96932000D01*
X79101000Y-92548000D02*
X79101000Y-95412000D01*
X78101000Y-95020000D02*
X78101000Y-96587000D01*
X76500000Y-95020000D02*
X76500000Y-97195000D01*
X76500000Y-90765000D02*
X76500000Y-92940000D01*
X79421000Y-93578000D02*
X79421000Y-94382000D01*
X78501000Y-91715000D02*
X78501000Y-96245000D01*
X76460000Y-95020000D02*
X76460000Y-97198000D01*
X77421000Y-95020000D02*
X77421000Y-96966000D01*
X77901000Y-95020000D02*
X77901000Y-96722000D01*
X76460000Y-90762000D02*
X76460000Y-92940000D01*
X77941000Y-91264000D02*
X77941000Y-92940000D01*
X78381000Y-91600000D02*
X78381000Y-92940000D01*
X77741000Y-91146000D02*
X77741000Y-92940000D01*
X77861000Y-91214000D02*
X77861000Y-92940000D01*
X76620000Y-95020000D02*
X76620000Y-97181000D01*
X78621000Y-91843000D02*
X78621000Y-96117000D01*
X77221000Y-90919000D02*
X77221000Y-92940000D01*
X79301000Y-93040000D02*
X79301000Y-94920000D01*
X77341000Y-90962000D02*
X77341000Y-92940000D01*
X77301000Y-95020000D02*
X77301000Y-97013000D01*
X76981000Y-90849000D02*
X76981000Y-92940000D01*
X77821000Y-91190000D02*
X77821000Y-92940000D01*
X78581000Y-91798000D02*
X78581000Y-96162000D01*
X76700000Y-90791000D02*
X76700000Y-92940000D01*
X79450000Y-93980000D02*
G75*
G03*
X79450000Y-93980000I-3270000J0D01*
G01*
%TO.C,J2*%
X74820000Y-79640000D02*
X72320000Y-79640000D01*
X72620000Y-90160000D02*
X76640000Y-90160000D01*
X74930000Y-79940000D02*
X74930000Y-80440000D01*
X74930000Y-80440000D02*
X76140000Y-80440000D01*
X74120000Y-80940000D02*
X72620000Y-80940000D01*
X72620000Y-79940000D02*
X72620000Y-90160000D01*
X76640000Y-79940000D02*
X72620000Y-79940000D01*
X72320000Y-79640000D02*
X72320000Y-82140000D01*
X76140000Y-80440000D02*
X76140000Y-89660000D01*
X74120000Y-79940000D02*
X74120000Y-80940000D01*
X74120000Y-89160000D02*
X72620000Y-89160000D01*
X74120000Y-90160000D02*
X74120000Y-89160000D01*
X74930000Y-89660000D02*
X74930000Y-90160000D01*
X76140000Y-89660000D02*
X74930000Y-89660000D01*
X76640000Y-90160000D02*
X76640000Y-79940000D01*
%TO.C,U5*%
X71854759Y-103910000D02*
X73114759Y-103910000D01*
X78674759Y-97900000D02*
X78674759Y-103910000D01*
X71854759Y-100150000D02*
X71854759Y-103910000D01*
X78674759Y-103910000D02*
X77414759Y-103910000D01*
%TO.C,U4*%
X110565000Y-102910000D02*
X113348233Y-102910000D01*
X111565000Y-113030000D02*
X110565000Y-112030000D01*
X119435000Y-113030000D02*
X111565000Y-113030000D01*
X120435000Y-112030000D02*
X119435000Y-113030000D01*
X120435000Y-102910000D02*
X120435000Y-112030000D01*
X110565000Y-112030000D02*
X110565000Y-102910000D01*
X115990000Y-102910000D02*
X114651767Y-102910000D01*
X120435000Y-102910000D02*
X118010000Y-102910000D01*
%TO.C,C1*%
X114781000Y-97296248D02*
X114781000Y-97818752D01*
X113311000Y-97296248D02*
X113311000Y-97818752D01*
%TO.C,U1*%
X86283800Y-63175000D02*
X104267000Y-63175000D01*
X86283800Y-65557400D02*
X86283800Y-63175000D01*
X104267000Y-63175000D02*
X104267000Y-65557400D01*
X81053680Y-113497720D02*
X109453679Y-113497720D01*
X81053681Y-65577720D02*
X81053680Y-113497720D01*
X109453679Y-113497720D02*
X109453680Y-65577720D01*
X109453680Y-65577720D02*
X81053681Y-65577720D01*
D13*
%TO.C,Ref\u002A\u002A*%
X98394520Y-57007760D02*
X97114360Y-57007760D01*
X97114360Y-57007760D02*
X97114360Y-57525920D01*
X97114360Y-57525920D02*
X98292920Y-57525920D01*
X98292920Y-57525920D02*
X98292920Y-57942480D01*
X98292920Y-57942480D02*
X97114360Y-57942480D01*
X97114360Y-57942480D02*
X97114360Y-58531721D01*
X97114360Y-58531721D02*
X97768410Y-58533010D01*
X97768410Y-58533010D02*
X98422460Y-58534300D01*
X98422460Y-58534300D02*
X98425104Y-58988960D01*
X98425104Y-58988960D02*
X96575880Y-58988960D01*
X96575880Y-58988960D02*
X96575880Y-56555640D01*
X96575880Y-56555640D02*
X98394520Y-56555640D01*
X98394520Y-56555640D02*
X98394520Y-57007760D01*
X98394520Y-57007760D02*
X98394520Y-57007760D01*
G36*
X98394520Y-57007760D02*
G01*
X97114360Y-57007760D01*
X97114360Y-57525920D01*
X98292920Y-57525920D01*
X98292920Y-57942480D01*
X97114360Y-57942480D01*
X97114360Y-58531721D01*
X97768410Y-58533010D01*
X98422460Y-58534300D01*
X98425104Y-58988960D01*
X96575880Y-58988960D01*
X96575880Y-56555640D01*
X98394520Y-56555640D01*
X98394520Y-57007760D01*
G37*
X98394520Y-57007760D02*
X97114360Y-57007760D01*
X97114360Y-57525920D01*
X98292920Y-57525920D01*
X98292920Y-57942480D01*
X97114360Y-57942480D01*
X97114360Y-58531721D01*
X97768410Y-58533010D01*
X98422460Y-58534300D01*
X98425104Y-58988960D01*
X96575880Y-58988960D01*
X96575880Y-56555640D01*
X98394520Y-56555640D01*
X98394520Y-57007760D01*
X95054176Y-59560540D02*
X95074274Y-59561054D01*
X95074274Y-59561054D02*
X95089072Y-59562405D01*
X95089072Y-59562405D02*
X95100999Y-59564999D01*
X95100999Y-59564999D02*
X95112487Y-59569242D01*
X95112487Y-59569242D02*
X95125964Y-59575539D01*
X95125964Y-59575539D02*
X95130735Y-59577878D01*
X95130735Y-59577878D02*
X95169611Y-59601945D01*
X95169611Y-59601945D02*
X95202037Y-59632928D01*
X95202037Y-59632928D02*
X95228204Y-59671159D01*
X95228204Y-59671159D02*
X95248302Y-59716972D01*
X95248302Y-59716972D02*
X95262522Y-59770699D01*
X95262522Y-59770699D02*
X95269986Y-59821433D01*
X95269986Y-59821433D02*
X95272178Y-59877381D01*
X95272178Y-59877381D02*
X95267628Y-59933267D01*
X95267628Y-59933267D02*
X95256750Y-59986493D01*
X95256750Y-59986493D02*
X95239958Y-60034463D01*
X95239958Y-60034463D02*
X95233911Y-60047281D01*
X95233911Y-60047281D02*
X95208291Y-60087413D01*
X95208291Y-60087413D02*
X95176090Y-60120290D01*
X95176090Y-60120290D02*
X95138235Y-60145503D01*
X95138235Y-60145503D02*
X95095650Y-60162644D01*
X95095650Y-60162644D02*
X95049262Y-60171305D01*
X95049262Y-60171305D02*
X94999996Y-60171077D01*
X94999996Y-60171077D02*
X94965520Y-60165678D01*
X94965520Y-60165678D02*
X94922643Y-60151329D01*
X94922643Y-60151329D02*
X94884208Y-60128206D01*
X94884208Y-60128206D02*
X94850794Y-60096936D01*
X94850794Y-60096936D02*
X94822981Y-60058142D01*
X94822981Y-60058142D02*
X94801350Y-60012450D01*
X94801350Y-60012450D02*
X94790281Y-59977020D01*
X94790281Y-59977020D02*
X94782832Y-59936157D01*
X94782832Y-59936157D02*
X94779272Y-59889866D01*
X94779272Y-59889866D02*
X94779520Y-59841472D01*
X94779520Y-59841472D02*
X94783493Y-59794300D01*
X94783493Y-59794300D02*
X94791112Y-59751676D01*
X94791112Y-59751676D02*
X94796240Y-59733180D01*
X94796240Y-59733180D02*
X94816188Y-59683719D01*
X94816188Y-59683719D02*
X94841827Y-59642505D01*
X94841827Y-59642505D02*
X94873441Y-59609181D01*
X94873441Y-59609181D02*
X94911312Y-59583393D01*
X94911312Y-59583393D02*
X94918680Y-59579590D01*
X94918680Y-59579590D02*
X94957405Y-59560460D01*
X94957405Y-59560460D02*
X95026348Y-59560460D01*
X95026348Y-59560460D02*
X95054176Y-59560540D01*
X95054176Y-59560540D02*
X95054176Y-59560540D01*
G36*
X95054176Y-59560540D02*
G01*
X95074274Y-59561054D01*
X95089072Y-59562405D01*
X95100999Y-59564999D01*
X95112487Y-59569242D01*
X95125964Y-59575539D01*
X95130735Y-59577878D01*
X95169611Y-59601945D01*
X95202037Y-59632928D01*
X95228204Y-59671159D01*
X95248302Y-59716972D01*
X95262522Y-59770699D01*
X95269986Y-59821433D01*
X95272178Y-59877381D01*
X95267628Y-59933267D01*
X95256750Y-59986493D01*
X95239958Y-60034463D01*
X95233911Y-60047281D01*
X95208291Y-60087413D01*
X95176090Y-60120290D01*
X95138235Y-60145503D01*
X95095650Y-60162644D01*
X95049262Y-60171305D01*
X94999996Y-60171077D01*
X94965520Y-60165678D01*
X94922643Y-60151329D01*
X94884208Y-60128206D01*
X94850794Y-60096936D01*
X94822981Y-60058142D01*
X94801350Y-60012450D01*
X94790281Y-59977020D01*
X94782832Y-59936157D01*
X94779272Y-59889866D01*
X94779520Y-59841472D01*
X94783493Y-59794300D01*
X94791112Y-59751676D01*
X94796240Y-59733180D01*
X94816188Y-59683719D01*
X94841827Y-59642505D01*
X94873441Y-59609181D01*
X94911312Y-59583393D01*
X94918680Y-59579590D01*
X94957405Y-59560460D01*
X95026348Y-59560460D01*
X95054176Y-59560540D01*
G37*
X95054176Y-59560540D02*
X95074274Y-59561054D01*
X95089072Y-59562405D01*
X95100999Y-59564999D01*
X95112487Y-59569242D01*
X95125964Y-59575539D01*
X95130735Y-59577878D01*
X95169611Y-59601945D01*
X95202037Y-59632928D01*
X95228204Y-59671159D01*
X95248302Y-59716972D01*
X95262522Y-59770699D01*
X95269986Y-59821433D01*
X95272178Y-59877381D01*
X95267628Y-59933267D01*
X95256750Y-59986493D01*
X95239958Y-60034463D01*
X95233911Y-60047281D01*
X95208291Y-60087413D01*
X95176090Y-60120290D01*
X95138235Y-60145503D01*
X95095650Y-60162644D01*
X95049262Y-60171305D01*
X94999996Y-60171077D01*
X94965520Y-60165678D01*
X94922643Y-60151329D01*
X94884208Y-60128206D01*
X94850794Y-60096936D01*
X94822981Y-60058142D01*
X94801350Y-60012450D01*
X94790281Y-59977020D01*
X94782832Y-59936157D01*
X94779272Y-59889866D01*
X94779520Y-59841472D01*
X94783493Y-59794300D01*
X94791112Y-59751676D01*
X94796240Y-59733180D01*
X94816188Y-59683719D01*
X94841827Y-59642505D01*
X94873441Y-59609181D01*
X94911312Y-59583393D01*
X94918680Y-59579590D01*
X94957405Y-59560460D01*
X95026348Y-59560460D01*
X95054176Y-59560540D01*
X98587560Y-60543440D02*
X91638120Y-60543440D01*
X91638120Y-60543440D02*
X91638120Y-60314840D01*
X91638120Y-60314840D02*
X91836240Y-60314840D01*
X91836240Y-60314840D02*
X92034360Y-60314840D01*
X92034360Y-60314840D02*
X92034360Y-59958330D01*
X92034360Y-59958330D02*
X92160090Y-59960219D01*
X92160090Y-59960219D02*
X92203304Y-59961001D01*
X92203304Y-59961001D02*
X92237715Y-59962067D01*
X92237715Y-59962067D02*
X92264677Y-59963670D01*
X92264677Y-59963670D02*
X92285546Y-59966063D01*
X92285546Y-59966063D02*
X92301678Y-59969495D01*
X92301678Y-59969495D02*
X92314429Y-59974221D01*
X92314429Y-59974221D02*
X92325155Y-59980490D01*
X92325155Y-59980490D02*
X92335210Y-59988555D01*
X92335210Y-59988555D02*
X92340895Y-59993799D01*
X92340895Y-59993799D02*
X92353672Y-60008147D01*
X92353672Y-60008147D02*
X92364240Y-60025448D01*
X92364240Y-60025448D02*
X92372946Y-60046954D01*
X92372946Y-60046954D02*
X92380143Y-60073912D01*
X92380143Y-60073912D02*
X92386178Y-60107571D01*
X92386178Y-60107571D02*
X92391403Y-60149181D01*
X92391403Y-60149181D02*
X92395080Y-60187277D01*
X92395080Y-60187277D02*
X92397912Y-60215425D01*
X92397912Y-60215425D02*
X92401287Y-60242602D01*
X92401287Y-60242602D02*
X92404795Y-60265816D01*
X92404795Y-60265816D02*
X92408022Y-60282072D01*
X92408022Y-60282072D02*
X92408202Y-60282775D01*
X92408202Y-60282775D02*
X92412125Y-60298215D01*
X92412125Y-60298215D02*
X92414725Y-60309171D01*
X92414725Y-60309171D02*
X92415360Y-60312547D01*
X92415360Y-60312547D02*
X92420180Y-60313261D01*
X92420180Y-60313261D02*
X92433600Y-60313883D01*
X92433600Y-60313883D02*
X92454062Y-60314379D01*
X92454062Y-60314379D02*
X92480007Y-60314710D01*
X92480007Y-60314710D02*
X92509874Y-60314839D01*
X92509874Y-60314839D02*
X92512010Y-60314840D01*
X92512010Y-60314840D02*
X92608660Y-60314840D01*
X92608660Y-60314840D02*
X92601470Y-60300870D01*
X92601470Y-60300870D02*
X92595586Y-60287841D01*
X92595586Y-60287841D02*
X92590754Y-60272975D01*
X92590754Y-60272975D02*
X92586707Y-60254709D01*
X92586707Y-60254709D02*
X92583174Y-60231479D01*
X92583174Y-60231479D02*
X92579888Y-60201725D01*
X92579888Y-60201725D02*
X92576579Y-60163882D01*
X92576579Y-60163882D02*
X92575466Y-60149740D01*
X92575466Y-60149740D02*
X92571138Y-60100476D01*
X92571138Y-60100476D02*
X92566222Y-60059983D01*
X92566222Y-60059983D02*
X92560295Y-60026871D01*
X92560295Y-60026871D02*
X92552934Y-59999753D01*
X92552934Y-59999753D02*
X92543717Y-59977240D01*
X92543717Y-59977240D02*
X92532220Y-59957943D01*
X92532220Y-59957943D02*
X92518021Y-59940474D01*
X92518021Y-59940474D02*
X92508887Y-59931123D01*
X92508887Y-59931123D02*
X92492324Y-59917353D01*
X92492324Y-59917353D02*
X92474030Y-59905545D01*
X92474030Y-59905545D02*
X92463564Y-59900528D01*
X92463564Y-59900528D02*
X92450322Y-59894869D01*
X92450322Y-59894869D02*
X92442201Y-59890234D01*
X92442201Y-59890234D02*
X92440968Y-59888699D01*
X92440968Y-59888699D02*
X92443980Y-59886113D01*
X92443980Y-59886113D02*
X92715723Y-59886113D01*
X92715723Y-59886113D02*
X92717581Y-59929083D01*
X92717581Y-59929083D02*
X92721788Y-59966875D01*
X92721788Y-59966875D02*
X92724096Y-59979627D01*
X92724096Y-59979627D02*
X92742590Y-60046834D01*
X92742590Y-60046834D02*
X92768914Y-60108124D01*
X92768914Y-60108124D02*
X92802809Y-60163103D01*
X92802809Y-60163103D02*
X92844019Y-60211379D01*
X92844019Y-60211379D02*
X92892284Y-60252558D01*
X92892284Y-60252558D02*
X92911310Y-60265551D01*
X92911310Y-60265551D02*
X92960653Y-60293033D01*
X92960653Y-60293033D02*
X93011730Y-60312659D01*
X93011730Y-60312659D02*
X93067131Y-60325295D01*
X93067131Y-60325295D02*
X93103700Y-60329899D01*
X93103700Y-60329899D02*
X93122953Y-60331742D01*
X93122953Y-60331742D02*
X93137975Y-60333258D01*
X93137975Y-60333258D02*
X93146172Y-60334184D01*
X93146172Y-60334184D02*
X93146880Y-60334298D01*
X93146880Y-60334298D02*
X93152700Y-60334090D01*
X93152700Y-60334090D02*
X93166343Y-60333046D01*
X93166343Y-60333046D02*
X93185522Y-60331352D01*
X93185522Y-60331352D02*
X93199937Y-60329986D01*
X93199937Y-60329986D02*
X93268193Y-60318899D01*
X93268193Y-60318899D02*
X93330680Y-60299513D01*
X93330680Y-60299513D02*
X93387288Y-60271896D01*
X93387288Y-60271896D02*
X93437909Y-60236119D01*
X93437909Y-60236119D02*
X93482433Y-60192251D01*
X93482433Y-60192251D02*
X93520751Y-60140361D01*
X93520751Y-60140361D02*
X93534947Y-60116230D01*
X93534947Y-60116230D02*
X93561736Y-60057298D01*
X93561736Y-60057298D02*
X93580506Y-59993698D01*
X93580506Y-59993698D02*
X93591294Y-59926955D01*
X93591294Y-59926955D02*
X93594133Y-59858597D01*
X93594133Y-59858597D02*
X93589058Y-59790152D01*
X93589058Y-59790152D02*
X93576104Y-59723145D01*
X93576104Y-59723145D02*
X93555304Y-59659104D01*
X93555304Y-59659104D02*
X93526694Y-59599555D01*
X93526694Y-59599555D02*
X93523123Y-59593431D01*
X93523123Y-59593431D02*
X93487687Y-59543519D01*
X93487687Y-59543519D02*
X93444468Y-59499210D01*
X93444468Y-59499210D02*
X93394721Y-59461461D01*
X93394721Y-59461461D02*
X93339698Y-59431229D01*
X93339698Y-59431229D02*
X93297910Y-59415680D01*
X93297910Y-59415680D02*
X93736160Y-59415680D01*
X93736160Y-59415680D02*
X93736160Y-60314840D01*
X93736160Y-60314840D02*
X93950790Y-60314751D01*
X93950790Y-60314751D02*
X93998555Y-60314615D01*
X93998555Y-60314615D02*
X94044857Y-60314264D01*
X94044857Y-60314264D02*
X94088332Y-60313723D01*
X94088332Y-60313723D02*
X94127613Y-60313019D01*
X94127613Y-60313019D02*
X94161336Y-60312178D01*
X94161336Y-60312178D02*
X94188137Y-60311226D01*
X94188137Y-60311226D02*
X94206649Y-60310188D01*
X94206649Y-60310188D02*
X94211140Y-60309786D01*
X94211140Y-60309786D02*
X94267951Y-60300898D01*
X94267951Y-60300898D02*
X94317142Y-60286882D01*
X94317142Y-60286882D02*
X94360183Y-60267151D01*
X94360183Y-60267151D02*
X94398542Y-60241118D01*
X94398542Y-60241118D02*
X94412154Y-60229489D01*
X94412154Y-60229489D02*
X94442920Y-60194987D01*
X94442920Y-60194987D02*
X94465380Y-60154953D01*
X94465380Y-60154953D02*
X94479343Y-60109971D01*
X94479343Y-60109971D02*
X94484617Y-60060625D01*
X94484617Y-60060625D02*
X94482219Y-60016456D01*
X94482219Y-60016456D02*
X94471811Y-59968824D01*
X94471811Y-59968824D02*
X94453016Y-59926810D01*
X94453016Y-59926810D02*
X94426051Y-59890721D01*
X94426051Y-59890721D02*
X94405185Y-59872880D01*
X94405185Y-59872880D02*
X94587600Y-59872880D01*
X94587600Y-59872880D02*
X94587982Y-59906430D01*
X94587982Y-59906430D02*
X94588874Y-59932393D01*
X94588874Y-59932393D02*
X94590538Y-59953340D01*
X94590538Y-59953340D02*
X94593232Y-59971839D01*
X94593232Y-59971839D02*
X94597216Y-59990462D01*
X94597216Y-59990462D02*
X94600983Y-60005215D01*
X94600983Y-60005215D02*
X94623158Y-60070815D01*
X94623158Y-60070815D02*
X94652816Y-60130016D01*
X94652816Y-60130016D02*
X94689503Y-60182423D01*
X94689503Y-60182423D02*
X94732763Y-60227637D01*
X94732763Y-60227637D02*
X94782143Y-60265263D01*
X94782143Y-60265263D02*
X94837186Y-60294904D01*
X94837186Y-60294904D02*
X94897438Y-60316161D01*
X94897438Y-60316161D02*
X94962444Y-60328639D01*
X94962444Y-60328639D02*
X94972966Y-60329766D01*
X94972966Y-60329766D02*
X95035922Y-60331871D01*
X95035922Y-60331871D02*
X95101848Y-60326725D01*
X95101848Y-60326725D02*
X95115722Y-60324733D01*
X95115722Y-60324733D02*
X95174966Y-60310497D01*
X95174966Y-60310497D02*
X95231236Y-60287067D01*
X95231236Y-60287067D02*
X95283529Y-60255217D01*
X95283529Y-60255217D02*
X95330841Y-60215718D01*
X95330841Y-60215718D02*
X95372170Y-60169346D01*
X95372170Y-60169346D02*
X95406511Y-60116871D01*
X95406511Y-60116871D02*
X95419935Y-60090356D01*
X95419935Y-60090356D02*
X95443329Y-60028434D01*
X95443329Y-60028434D02*
X95458537Y-59962816D01*
X95458537Y-59962816D02*
X95465670Y-59895012D01*
X95465670Y-59895012D02*
X95464836Y-59826533D01*
X95464836Y-59826533D02*
X95456146Y-59758889D01*
X95456146Y-59758889D02*
X95439711Y-59693590D01*
X95439711Y-59693590D02*
X95415639Y-59632147D01*
X95415639Y-59632147D02*
X95384042Y-59576070D01*
X95384042Y-59576070D02*
X95382302Y-59573487D01*
X95382302Y-59573487D02*
X95343342Y-59525002D01*
X95343342Y-59525002D02*
X95297230Y-59483135D01*
X95297230Y-59483135D02*
X95245061Y-59448576D01*
X95245061Y-59448576D02*
X95187930Y-59422012D01*
X95187930Y-59422012D02*
X95166331Y-59415680D01*
X95166331Y-59415680D02*
X95534480Y-59415680D01*
X95534480Y-59415680D02*
X95534480Y-59578240D01*
X95534480Y-59578240D02*
X95803720Y-59578240D01*
X95803720Y-59578240D02*
X95803720Y-60314840D01*
X95803720Y-60314840D02*
X96001840Y-60314840D01*
X96001840Y-60314840D02*
X96001840Y-59578240D01*
X96001840Y-59578240D02*
X96271080Y-59578240D01*
X96271080Y-59578240D02*
X96271080Y-59415680D01*
X96271080Y-59415680D02*
X96377760Y-59415680D01*
X96377760Y-59415680D02*
X96377760Y-60314840D01*
X96377760Y-60314840D02*
X96570800Y-60314840D01*
X96570800Y-60314840D02*
X96570800Y-59860184D01*
X96570800Y-59860184D02*
X96713745Y-59860184D01*
X96713745Y-59860184D02*
X96714581Y-59897299D01*
X96714581Y-59897299D02*
X96722612Y-59968466D01*
X96722612Y-59968466D02*
X96738841Y-60034738D01*
X96738841Y-60034738D02*
X96762837Y-60095632D01*
X96762837Y-60095632D02*
X96794167Y-60150666D01*
X96794167Y-60150666D02*
X96832399Y-60199354D01*
X96832399Y-60199354D02*
X96877099Y-60241215D01*
X96877099Y-60241215D02*
X96927837Y-60275765D01*
X96927837Y-60275765D02*
X96984178Y-60302520D01*
X96984178Y-60302520D02*
X97045692Y-60320997D01*
X97045692Y-60320997D02*
X97101486Y-60329811D01*
X97101486Y-60329811D02*
X97120900Y-60331740D01*
X97120900Y-60331740D02*
X97136206Y-60333342D01*
X97136206Y-60333342D02*
X97144760Y-60334338D01*
X97144760Y-60334338D02*
X97145571Y-60334467D01*
X97145571Y-60334467D02*
X97151693Y-60334266D01*
X97151693Y-60334266D02*
X97165645Y-60333176D01*
X97165645Y-60333176D02*
X97185154Y-60331389D01*
X97185154Y-60331389D02*
X97201451Y-60329769D01*
X97201451Y-60329769D02*
X97265570Y-60318698D01*
X97265570Y-60318698D02*
X97324099Y-60299304D01*
X97324099Y-60299304D02*
X97376766Y-60271779D01*
X97376766Y-60271779D02*
X97423296Y-60236314D01*
X97423296Y-60236314D02*
X97463414Y-60193100D01*
X97463414Y-60193100D02*
X97496848Y-60142328D01*
X97496848Y-60142328D02*
X97511284Y-60113484D01*
X97511284Y-60113484D02*
X97519929Y-60091727D01*
X97519929Y-60091727D02*
X97528499Y-60065590D01*
X97528499Y-60065590D02*
X97536178Y-60038121D01*
X97536178Y-60038121D02*
X97540334Y-60020200D01*
X97540334Y-60020200D02*
X97631053Y-60020200D01*
X97631053Y-60020200D02*
X97633839Y-60057041D01*
X97633839Y-60057041D02*
X97641837Y-60105088D01*
X97641837Y-60105088D02*
X97658704Y-60150297D01*
X97658704Y-60150297D02*
X97681452Y-60189270D01*
X97681452Y-60189270D02*
X97707134Y-60222286D01*
X97707134Y-60222286D02*
X97735771Y-60249180D01*
X97735771Y-60249180D02*
X97770191Y-60272374D01*
X97770191Y-60272374D02*
X97792540Y-60284394D01*
X97792540Y-60284394D02*
X97846142Y-60306290D01*
X97846142Y-60306290D02*
X97905763Y-60321619D01*
X97905763Y-60321619D02*
X97969489Y-60330169D01*
X97969489Y-60330169D02*
X98035411Y-60331726D01*
X98035411Y-60331726D02*
X98101617Y-60326079D01*
X98101617Y-60326079D02*
X98127820Y-60321741D01*
X98127820Y-60321741D02*
X98185161Y-60306912D01*
X98185161Y-60306912D02*
X98236425Y-60285555D01*
X98236425Y-60285555D02*
X98280935Y-60258128D01*
X98280935Y-60258128D02*
X98318014Y-60225088D01*
X98318014Y-60225088D02*
X98346987Y-60186894D01*
X98346987Y-60186894D02*
X98358369Y-60165694D01*
X98358369Y-60165694D02*
X98371963Y-60132529D01*
X98371963Y-60132529D02*
X98380155Y-60100943D01*
X98380155Y-60100943D02*
X98383642Y-60067136D01*
X98383642Y-60067136D02*
X98383251Y-60029931D01*
X98383251Y-60029931D02*
X98381623Y-60004669D01*
X98381623Y-60004669D02*
X98379049Y-59985930D01*
X98379049Y-59985930D02*
X98374702Y-59970077D01*
X98374702Y-59970077D02*
X98367753Y-59953475D01*
X98367753Y-59953475D02*
X98364102Y-59945897D01*
X98364102Y-59945897D02*
X98345732Y-59915715D01*
X98345732Y-59915715D02*
X98321284Y-59885986D01*
X98321284Y-59885986D02*
X98315736Y-59880267D01*
X98315736Y-59880267D02*
X98298035Y-59863777D01*
X98298035Y-59863777D02*
X98279551Y-59849407D01*
X98279551Y-59849407D02*
X98258995Y-59836598D01*
X98258995Y-59836598D02*
X98235080Y-59824790D01*
X98235080Y-59824790D02*
X98206519Y-59813424D01*
X98206519Y-59813424D02*
X98172024Y-59801939D01*
X98172024Y-59801939D02*
X98130307Y-59789776D01*
X98130307Y-59789776D02*
X98080082Y-59776376D01*
X98080082Y-59776376D02*
X98071940Y-59774277D01*
X98071940Y-59774277D02*
X98021422Y-59761118D01*
X98021422Y-59761118D02*
X97979855Y-59749799D01*
X97979855Y-59749799D02*
X97946275Y-59739939D01*
X97946275Y-59739939D02*
X97919719Y-59731156D01*
X97919719Y-59731156D02*
X97899224Y-59723066D01*
X97899224Y-59723066D02*
X97883826Y-59715289D01*
X97883826Y-59715289D02*
X97872562Y-59707440D01*
X97872562Y-59707440D02*
X97864469Y-59699139D01*
X97864469Y-59699139D02*
X97858584Y-59690003D01*
X97858584Y-59690003D02*
X97858320Y-59689497D01*
X97858320Y-59689497D02*
X97852729Y-59671084D01*
X97852729Y-59671084D02*
X97850965Y-59647919D01*
X97850965Y-59647919D02*
X97852911Y-59624353D01*
X97852911Y-59624353D02*
X97858451Y-59604736D01*
X97858451Y-59604736D02*
X97860706Y-59600418D01*
X97860706Y-59600418D02*
X97880619Y-59577262D01*
X97880619Y-59577262D02*
X97908020Y-59559810D01*
X97908020Y-59559810D02*
X97941779Y-59548376D01*
X97941779Y-59548376D02*
X97980770Y-59543277D01*
X97980770Y-59543277D02*
X98023865Y-59544830D01*
X98023865Y-59544830D02*
X98046715Y-59548222D01*
X98046715Y-59548222D02*
X98086518Y-59559417D01*
X98086518Y-59559417D02*
X98118322Y-59576775D01*
X98118322Y-59576775D02*
X98142061Y-59600236D01*
X98142061Y-59600236D02*
X98157669Y-59629736D01*
X98157669Y-59629736D02*
X98164165Y-59656963D01*
X98164165Y-59656963D02*
X98167300Y-59679840D01*
X98167300Y-59679840D02*
X98353880Y-59679840D01*
X98353880Y-59679840D02*
X98353880Y-59658047D01*
X98353880Y-59658047D02*
X98349001Y-59615191D01*
X98349001Y-59615191D02*
X98335067Y-59572824D01*
X98335067Y-59572824D02*
X98313131Y-59532465D01*
X98313131Y-59532465D02*
X98284244Y-59495633D01*
X98284244Y-59495633D02*
X98249460Y-59463848D01*
X98249460Y-59463848D02*
X98209830Y-59438628D01*
X98209830Y-59438628D02*
X98197905Y-59432904D01*
X98197905Y-59432904D02*
X98164636Y-59419526D01*
X98164636Y-59419526D02*
X98131926Y-59409816D01*
X98131926Y-59409816D02*
X98097238Y-59403319D01*
X98097238Y-59403319D02*
X98058036Y-59399583D01*
X98058036Y-59399583D02*
X98011782Y-59398154D01*
X98011782Y-59398154D02*
X98003360Y-59398108D01*
X98003360Y-59398108D02*
X97970238Y-59398202D01*
X97970238Y-59398202D02*
X97944929Y-59398817D01*
X97944929Y-59398817D02*
X97925091Y-59400169D01*
X97925091Y-59400169D02*
X97908381Y-59402475D01*
X97908381Y-59402475D02*
X97892458Y-59405951D01*
X97892458Y-59405951D02*
X97879128Y-59409600D01*
X97879128Y-59409600D02*
X97825343Y-59429296D01*
X97825343Y-59429296D02*
X97778115Y-59455091D01*
X97778115Y-59455091D02*
X97738092Y-59486420D01*
X97738092Y-59486420D02*
X97705924Y-59522719D01*
X97705924Y-59522719D02*
X97682257Y-59563424D01*
X97682257Y-59563424D02*
X97672475Y-59589504D01*
X97672475Y-59589504D02*
X97667243Y-59608957D01*
X97667243Y-59608957D02*
X97664302Y-59627002D01*
X97664302Y-59627002D02*
X97663298Y-59647317D01*
X97663298Y-59647317D02*
X97663881Y-59673583D01*
X97663881Y-59673583D02*
X97664048Y-59677487D01*
X97664048Y-59677487D02*
X97668172Y-59718339D01*
X97668172Y-59718339D02*
X97677301Y-59752347D01*
X97677301Y-59752347D02*
X97692595Y-59782072D01*
X97692595Y-59782072D02*
X97715214Y-59810074D01*
X97715214Y-59810074D02*
X97731124Y-59825601D01*
X97731124Y-59825601D02*
X97750618Y-59842225D01*
X97750618Y-59842225D02*
X97771087Y-59856862D01*
X97771087Y-59856862D02*
X97793816Y-59870053D01*
X97793816Y-59870053D02*
X97820090Y-59882338D01*
X97820090Y-59882338D02*
X97851193Y-59894258D01*
X97851193Y-59894258D02*
X97888410Y-59906354D01*
X97888410Y-59906354D02*
X97933026Y-59919166D01*
X97933026Y-59919166D02*
X97986324Y-59933235D01*
X97986324Y-59933235D02*
X97987670Y-59933580D01*
X97987670Y-59933580D02*
X98033356Y-59945623D01*
X98033356Y-59945623D02*
X98070413Y-59956314D01*
X98070413Y-59956314D02*
X98100189Y-59966226D01*
X98100189Y-59966226D02*
X98124031Y-59975932D01*
X98124031Y-59975932D02*
X98143286Y-59986006D01*
X98143286Y-59986006D02*
X98159301Y-59997021D01*
X98159301Y-59997021D02*
X98173424Y-60009552D01*
X98173424Y-60009552D02*
X98178620Y-60014877D01*
X98178620Y-60014877D02*
X98186382Y-60023864D01*
X98186382Y-60023864D02*
X98190939Y-60032437D01*
X98190939Y-60032437D02*
X98193137Y-60043678D01*
X98193137Y-60043678D02*
X98193820Y-60060673D01*
X98193820Y-60060673D02*
X98193860Y-60070459D01*
X98193860Y-60070459D02*
X98193482Y-60091327D01*
X98193482Y-60091327D02*
X98191790Y-60105400D01*
X98191790Y-60105400D02*
X98187945Y-60116033D01*
X98187945Y-60116033D02*
X98181105Y-60126579D01*
X98181105Y-60126579D02*
X98179171Y-60129148D01*
X98179171Y-60129148D02*
X98160698Y-60146765D01*
X98160698Y-60146765D02*
X98133744Y-60162946D01*
X98133744Y-60162946D02*
X98130911Y-60164313D01*
X98130911Y-60164313D02*
X98117400Y-60170535D01*
X98117400Y-60170535D02*
X98106057Y-60174877D01*
X98106057Y-60174877D02*
X98094606Y-60177674D01*
X98094606Y-60177674D02*
X98080772Y-60179264D01*
X98080772Y-60179264D02*
X98062277Y-60179982D01*
X98062277Y-60179982D02*
X98036846Y-60180165D01*
X98036846Y-60180165D02*
X98023680Y-60180163D01*
X98023680Y-60180163D02*
X97993592Y-60179971D01*
X97993592Y-60179971D02*
X97971362Y-60179270D01*
X97971362Y-60179270D02*
X97954689Y-60177793D01*
X97954689Y-60177793D02*
X97941272Y-60175271D01*
X97941272Y-60175271D02*
X97928811Y-60171437D01*
X97928811Y-60171437D02*
X97920145Y-60168120D01*
X97920145Y-60168120D02*
X97885524Y-60149601D01*
X97885524Y-60149601D02*
X97857298Y-60124976D01*
X97857298Y-60124976D02*
X97836528Y-60095540D01*
X97836528Y-60095540D02*
X97824278Y-60062591D01*
X97824278Y-60062591D02*
X97821966Y-60048379D01*
X97821966Y-60048379D02*
X97819058Y-60020200D01*
X97819058Y-60020200D02*
X97631053Y-60020200D01*
X97631053Y-60020200D02*
X97540334Y-60020200D01*
X97540334Y-60020200D02*
X97542150Y-60012371D01*
X97542150Y-60012371D02*
X97545598Y-59991390D01*
X97545598Y-59991390D02*
X97546124Y-59983255D01*
X97546124Y-59983255D02*
X97546160Y-59969170D01*
X97546160Y-59969170D02*
X97362116Y-59971940D01*
X97362116Y-59971940D02*
X97352691Y-60009071D01*
X97352691Y-60009071D02*
X97339093Y-60050516D01*
X97339093Y-60050516D02*
X97320523Y-60085067D01*
X97320523Y-60085067D02*
X97295452Y-60115386D01*
X97295452Y-60115386D02*
X97287067Y-60123473D01*
X97287067Y-60123473D02*
X97259365Y-60145087D01*
X97259365Y-60145087D02*
X97229684Y-60159603D01*
X97229684Y-60159603D02*
X97195085Y-60168259D01*
X97195085Y-60168259D02*
X97174775Y-60170799D01*
X97174775Y-60170799D02*
X97125063Y-60170819D01*
X97125063Y-60170819D02*
X97078732Y-60161618D01*
X97078732Y-60161618D02*
X97036577Y-60143632D01*
X97036577Y-60143632D02*
X96999389Y-60117294D01*
X96999389Y-60117294D02*
X96967961Y-60083039D01*
X96967961Y-60083039D02*
X96944697Y-60044660D01*
X96944697Y-60044660D02*
X96928543Y-60007069D01*
X96928543Y-60007069D02*
X96917499Y-59969701D01*
X96917499Y-59969701D02*
X96910611Y-59928768D01*
X96910611Y-59928768D02*
X96907901Y-59898280D01*
X96907901Y-59898280D02*
X96907377Y-59835856D01*
X96907377Y-59835856D02*
X96914028Y-59778020D01*
X96914028Y-59778020D02*
X96927564Y-59725432D01*
X96927564Y-59725432D02*
X96947697Y-59678753D01*
X96947697Y-59678753D02*
X96974139Y-59638644D01*
X96974139Y-59638644D02*
X97006601Y-59605768D01*
X97006601Y-59605768D02*
X97044795Y-59580785D01*
X97044795Y-59580785D02*
X97046878Y-59579742D01*
X97046878Y-59579742D02*
X97066301Y-59570598D01*
X97066301Y-59570598D02*
X97082120Y-59564790D01*
X97082120Y-59564790D02*
X97098116Y-59561416D01*
X97098116Y-59561416D02*
X97118070Y-59559572D01*
X97118070Y-59559572D02*
X97134683Y-59558778D01*
X97134683Y-59558778D02*
X97178133Y-59559472D01*
X97178133Y-59559472D02*
X97215154Y-59565732D01*
X97215154Y-59565732D02*
X97248150Y-59578108D01*
X97248150Y-59578108D02*
X97267761Y-59589170D01*
X97267761Y-59589170D02*
X97298584Y-59613346D01*
X97298584Y-59613346D02*
X97323964Y-59642412D01*
X97323964Y-59642412D02*
X97342227Y-59674140D01*
X97342227Y-59674140D02*
X97350363Y-59698890D01*
X97350363Y-59698890D02*
X97353927Y-59715400D01*
X97353927Y-59715400D02*
X97541540Y-59715400D01*
X97541540Y-59715400D02*
X97538248Y-59696350D01*
X97538248Y-59696350D02*
X97525740Y-59643377D01*
X97525740Y-59643377D02*
X97507087Y-59596871D01*
X97507087Y-59596871D02*
X97481041Y-59554430D01*
X97481041Y-59554430D02*
X97446352Y-59513650D01*
X97446352Y-59513650D02*
X97439781Y-59506984D01*
X97439781Y-59506984D02*
X97397265Y-59469673D01*
X97397265Y-59469673D02*
X97352329Y-59440763D01*
X97352329Y-59440763D02*
X97302295Y-59418682D01*
X97302295Y-59418682D02*
X97274092Y-59409584D01*
X97274092Y-59409584D02*
X97257169Y-59405052D01*
X97257169Y-59405052D02*
X97241258Y-59401857D01*
X97241258Y-59401857D02*
X97224019Y-59399783D01*
X97224019Y-59399783D02*
X97203110Y-59398613D01*
X97203110Y-59398613D02*
X97176188Y-59398130D01*
X97176188Y-59398130D02*
X97149920Y-59398090D01*
X97149920Y-59398090D02*
X97109364Y-59398680D01*
X97109364Y-59398680D02*
X97076386Y-59400568D01*
X97076386Y-59400568D02*
X97048436Y-59404239D01*
X97048436Y-59404239D02*
X97022966Y-59410181D01*
X97022966Y-59410181D02*
X96997426Y-59418880D01*
X96997426Y-59418880D02*
X96969266Y-59430822D01*
X96969266Y-59430822D02*
X96962771Y-59433793D01*
X96962771Y-59433793D02*
X96907628Y-59464667D01*
X96907628Y-59464667D02*
X96858666Y-59503220D01*
X96858666Y-59503220D02*
X96816225Y-59548815D01*
X96816225Y-59548815D02*
X96780645Y-59600817D01*
X96780645Y-59600817D02*
X96752267Y-59658590D01*
X96752267Y-59658590D02*
X96731431Y-59721500D01*
X96731431Y-59721500D02*
X96718477Y-59788910D01*
X96718477Y-59788910D02*
X96713745Y-59860184D01*
X96713745Y-59860184D02*
X96570800Y-59860184D01*
X96570800Y-59860184D02*
X96570800Y-59415680D01*
X96570800Y-59415680D02*
X96377760Y-59415680D01*
X96377760Y-59415680D02*
X96271080Y-59415680D01*
X96271080Y-59415680D02*
X95534480Y-59415680D01*
X95534480Y-59415680D02*
X95166331Y-59415680D01*
X95166331Y-59415680D02*
X95126936Y-59404131D01*
X95126936Y-59404131D02*
X95106372Y-59400289D01*
X95106372Y-59400289D02*
X95079291Y-59397447D01*
X95079291Y-59397447D02*
X95046083Y-59396265D01*
X95046083Y-59396265D02*
X95009732Y-59396627D01*
X95009732Y-59396627D02*
X94973223Y-59398420D01*
X94973223Y-59398420D02*
X94939540Y-59401530D01*
X94939540Y-59401530D02*
X94911667Y-59405843D01*
X94911667Y-59405843D02*
X94902020Y-59408091D01*
X94902020Y-59408091D02*
X94872427Y-59418076D01*
X94872427Y-59418076D02*
X94838752Y-59432615D01*
X94838752Y-59432615D02*
X94804568Y-59449912D01*
X94804568Y-59449912D02*
X94773452Y-59468172D01*
X94773452Y-59468172D02*
X94751033Y-59483939D01*
X94751033Y-59483939D02*
X94709017Y-59523520D01*
X94709017Y-59523520D02*
X94671784Y-59571258D01*
X94671784Y-59571258D02*
X94639974Y-59626037D01*
X94639974Y-59626037D02*
X94614229Y-59686736D01*
X94614229Y-59686736D02*
X94595189Y-59752238D01*
X94595189Y-59752238D02*
X94593772Y-59758580D01*
X94593772Y-59758580D02*
X94590929Y-59778124D01*
X94590929Y-59778124D02*
X94588898Y-59806036D01*
X94588898Y-59806036D02*
X94587775Y-59840548D01*
X94587775Y-59840548D02*
X94587600Y-59872880D01*
X94587600Y-59872880D02*
X94405185Y-59872880D01*
X94405185Y-59872880D02*
X94391132Y-59860865D01*
X94391132Y-59860865D02*
X94360031Y-59842835D01*
X94360031Y-59842835D02*
X94320354Y-59823527D01*
X94320354Y-59823527D02*
X94350665Y-59804818D01*
X94350665Y-59804818D02*
X94386357Y-59777026D01*
X94386357Y-59777026D02*
X94414506Y-59742526D01*
X94414506Y-59742526D02*
X94428177Y-59717535D01*
X94428177Y-59717535D02*
X94433358Y-59704857D01*
X94433358Y-59704857D02*
X94436713Y-59692076D01*
X94436713Y-59692076D02*
X94438604Y-59676525D01*
X94438604Y-59676525D02*
X94439392Y-59655534D01*
X94439392Y-59655534D02*
X94439475Y-59634120D01*
X94439475Y-59634120D02*
X94439023Y-59606051D01*
X94439023Y-59606051D02*
X94437626Y-59585229D01*
X94437626Y-59585229D02*
X94434898Y-59568758D01*
X94434898Y-59568758D02*
X94430451Y-59553740D01*
X94430451Y-59553740D02*
X94427807Y-59546735D01*
X94427807Y-59546735D02*
X94408202Y-59510775D01*
X94408202Y-59510775D02*
X94380231Y-59479705D01*
X94380231Y-59479705D02*
X94344959Y-59454637D01*
X94344959Y-59454637D02*
X94333931Y-59448850D01*
X94333931Y-59448850D02*
X94318687Y-59441743D01*
X94318687Y-59441743D02*
X94303759Y-59435721D01*
X94303759Y-59435721D02*
X94288180Y-59430696D01*
X94288180Y-59430696D02*
X94270979Y-59426579D01*
X94270979Y-59426579D02*
X94251190Y-59423281D01*
X94251190Y-59423281D02*
X94227841Y-59420713D01*
X94227841Y-59420713D02*
X94199965Y-59418788D01*
X94199965Y-59418788D02*
X94166593Y-59417415D01*
X94166593Y-59417415D02*
X94126755Y-59416507D01*
X94126755Y-59416507D02*
X94079483Y-59415975D01*
X94079483Y-59415975D02*
X94023809Y-59415729D01*
X94023809Y-59415729D02*
X93971714Y-59415680D01*
X93971714Y-59415680D02*
X93736160Y-59415680D01*
X93736160Y-59415680D02*
X93297910Y-59415680D01*
X93297910Y-59415680D02*
X93283169Y-59410195D01*
X93283169Y-59410195D02*
X93251657Y-59403356D01*
X93251657Y-59403356D02*
X93213411Y-59398647D01*
X93213411Y-59398647D02*
X93171653Y-59396175D01*
X93171653Y-59396175D02*
X93129605Y-59396050D01*
X93129605Y-59396050D02*
X93090489Y-59398377D01*
X93090489Y-59398377D02*
X93060022Y-59402744D01*
X93060022Y-59402744D02*
X92997950Y-59419577D01*
X92997950Y-59419577D02*
X92942084Y-59443997D01*
X92942084Y-59443997D02*
X92891261Y-59476593D01*
X92891261Y-59476593D02*
X92856254Y-59506290D01*
X92856254Y-59506290D02*
X92813618Y-59553340D01*
X92813618Y-59553340D02*
X92777554Y-59607500D01*
X92777554Y-59607500D02*
X92748740Y-59667601D01*
X92748740Y-59667601D02*
X92730311Y-59723020D01*
X92730311Y-59723020D02*
X92723507Y-59756417D01*
X92723507Y-59756417D02*
X92718759Y-59796751D01*
X92718759Y-59796751D02*
X92716140Y-59840993D01*
X92716140Y-59840993D02*
X92715723Y-59886113D01*
X92715723Y-59886113D02*
X92443980Y-59886113D01*
X92443980Y-59886113D02*
X92445288Y-59884990D01*
X92445288Y-59884990D02*
X92456167Y-59878796D01*
X92456167Y-59878796D02*
X92465742Y-59874071D01*
X92465742Y-59874071D02*
X92501195Y-59852089D01*
X92501195Y-59852089D02*
X92530778Y-59822856D01*
X92530778Y-59822856D02*
X92554127Y-59787662D01*
X92554127Y-59787662D02*
X92570876Y-59747794D01*
X92570876Y-59747794D02*
X92580661Y-59704540D01*
X92580661Y-59704540D02*
X92583119Y-59659189D01*
X92583119Y-59659189D02*
X92577884Y-59613029D01*
X92577884Y-59613029D02*
X92564592Y-59567349D01*
X92564592Y-59567349D02*
X92557314Y-59550300D01*
X92557314Y-59550300D02*
X92543669Y-59528002D01*
X92543669Y-59528002D02*
X92523616Y-59503733D01*
X92523616Y-59503733D02*
X92499812Y-59480110D01*
X92499812Y-59480110D02*
X92474910Y-59459751D01*
X92474910Y-59459751D02*
X92451569Y-59445275D01*
X92451569Y-59445275D02*
X92450024Y-59444532D01*
X92450024Y-59444532D02*
X92436755Y-59438442D01*
X92436755Y-59438442D02*
X92424308Y-59433280D01*
X92424308Y-59433280D02*
X92411742Y-59428968D01*
X92411742Y-59428968D02*
X92398111Y-59425431D01*
X92398111Y-59425431D02*
X92382474Y-59422590D01*
X92382474Y-59422590D02*
X92363886Y-59420370D01*
X92363886Y-59420370D02*
X92341404Y-59418694D01*
X92341404Y-59418694D02*
X92314085Y-59417484D01*
X92314085Y-59417484D02*
X92280985Y-59416665D01*
X92280985Y-59416665D02*
X92241161Y-59416158D01*
X92241161Y-59416158D02*
X92193669Y-59415888D01*
X92193669Y-59415888D02*
X92137566Y-59415777D01*
X92137566Y-59415777D02*
X92096590Y-59415755D01*
X92096590Y-59415755D02*
X91836240Y-59415680D01*
X91836240Y-59415680D02*
X91836240Y-60314840D01*
X91836240Y-60314840D02*
X91638120Y-60314840D01*
X91638120Y-60314840D02*
X91638120Y-59182000D01*
X91638120Y-59182000D02*
X98587560Y-59182000D01*
X98587560Y-59182000D02*
X98587560Y-60543440D01*
X98587560Y-60543440D02*
X98587560Y-60543440D01*
G36*
X98587560Y-59182000D02*
G01*
X98587560Y-60543440D01*
X91638120Y-60543440D01*
X91638120Y-60314840D01*
X91836240Y-60314840D01*
X92034360Y-60314840D01*
X92034360Y-59958330D01*
X92160090Y-59960219D01*
X92203304Y-59961001D01*
X92237715Y-59962067D01*
X92264677Y-59963670D01*
X92285546Y-59966063D01*
X92301678Y-59969495D01*
X92314429Y-59974221D01*
X92325155Y-59980490D01*
X92335210Y-59988555D01*
X92340895Y-59993799D01*
X92353672Y-60008147D01*
X92364240Y-60025448D01*
X92372946Y-60046954D01*
X92380143Y-60073912D01*
X92386178Y-60107571D01*
X92391403Y-60149181D01*
X92395080Y-60187277D01*
X92397912Y-60215425D01*
X92401287Y-60242602D01*
X92404795Y-60265816D01*
X92408022Y-60282072D01*
X92408202Y-60282775D01*
X92412125Y-60298215D01*
X92414725Y-60309171D01*
X92415360Y-60312547D01*
X92420180Y-60313261D01*
X92433600Y-60313883D01*
X92454062Y-60314379D01*
X92480007Y-60314710D01*
X92509874Y-60314839D01*
X92512010Y-60314840D01*
X92608660Y-60314840D01*
X92601470Y-60300870D01*
X92595586Y-60287841D01*
X92590754Y-60272975D01*
X92586707Y-60254709D01*
X92583174Y-60231479D01*
X92579888Y-60201725D01*
X92576579Y-60163882D01*
X92575466Y-60149740D01*
X92571138Y-60100476D01*
X92566222Y-60059983D01*
X92560295Y-60026871D01*
X92552934Y-59999753D01*
X92543717Y-59977240D01*
X92532220Y-59957943D01*
X92518021Y-59940474D01*
X92508887Y-59931123D01*
X92492324Y-59917353D01*
X92474030Y-59905545D01*
X92463564Y-59900528D01*
X92450322Y-59894869D01*
X92442201Y-59890234D01*
X92440968Y-59888699D01*
X92443980Y-59886113D01*
X92715723Y-59886113D01*
X92717581Y-59929083D01*
X92721788Y-59966875D01*
X92724096Y-59979627D01*
X92742590Y-60046834D01*
X92768914Y-60108124D01*
X92802809Y-60163103D01*
X92844019Y-60211379D01*
X92892284Y-60252558D01*
X92911310Y-60265551D01*
X92960653Y-60293033D01*
X93011730Y-60312659D01*
X93067131Y-60325295D01*
X93103700Y-60329899D01*
X93122953Y-60331742D01*
X93137975Y-60333258D01*
X93146172Y-60334184D01*
X93146880Y-60334298D01*
X93152700Y-60334090D01*
X93166343Y-60333046D01*
X93185522Y-60331352D01*
X93199937Y-60329986D01*
X93268193Y-60318899D01*
X93281276Y-60314840D01*
X93736160Y-60314840D01*
X93950790Y-60314751D01*
X93998555Y-60314615D01*
X94044857Y-60314264D01*
X94088332Y-60313723D01*
X94127613Y-60313019D01*
X94161336Y-60312178D01*
X94188137Y-60311226D01*
X94206649Y-60310188D01*
X94211140Y-60309786D01*
X94267951Y-60300898D01*
X94317142Y-60286882D01*
X94360183Y-60267151D01*
X94398542Y-60241118D01*
X94412154Y-60229489D01*
X94442920Y-60194987D01*
X94465380Y-60154953D01*
X94479343Y-60109971D01*
X94484617Y-60060625D01*
X94482219Y-60016456D01*
X94471811Y-59968824D01*
X94453016Y-59926810D01*
X94426051Y-59890721D01*
X94405185Y-59872880D01*
X94587600Y-59872880D01*
X94587982Y-59906430D01*
X94588874Y-59932393D01*
X94590538Y-59953340D01*
X94593232Y-59971839D01*
X94597216Y-59990462D01*
X94600983Y-60005215D01*
X94623158Y-60070815D01*
X94652816Y-60130016D01*
X94689503Y-60182423D01*
X94732763Y-60227637D01*
X94782143Y-60265263D01*
X94837186Y-60294904D01*
X94897438Y-60316161D01*
X94962444Y-60328639D01*
X94972966Y-60329766D01*
X95035922Y-60331871D01*
X95101848Y-60326725D01*
X95115722Y-60324733D01*
X95174966Y-60310497D01*
X95231236Y-60287067D01*
X95283529Y-60255217D01*
X95330841Y-60215718D01*
X95372170Y-60169346D01*
X95406511Y-60116871D01*
X95419935Y-60090356D01*
X95443329Y-60028434D01*
X95458537Y-59962816D01*
X95465670Y-59895012D01*
X95464836Y-59826533D01*
X95456146Y-59758889D01*
X95439711Y-59693590D01*
X95415639Y-59632147D01*
X95385265Y-59578240D01*
X95534480Y-59578240D01*
X95803720Y-59578240D01*
X95803720Y-60314840D01*
X96001840Y-60314840D01*
X96377760Y-60314840D01*
X96570800Y-60314840D01*
X96570800Y-59860184D01*
X96713745Y-59860184D01*
X96714581Y-59897299D01*
X96722612Y-59968466D01*
X96738841Y-60034738D01*
X96762837Y-60095632D01*
X96794167Y-60150666D01*
X96832399Y-60199354D01*
X96877099Y-60241215D01*
X96927837Y-60275765D01*
X96984178Y-60302520D01*
X97045692Y-60320997D01*
X97101486Y-60329811D01*
X97120900Y-60331740D01*
X97136206Y-60333342D01*
X97144760Y-60334338D01*
X97145571Y-60334467D01*
X97151693Y-60334266D01*
X97165645Y-60333176D01*
X97185154Y-60331389D01*
X97201451Y-60329769D01*
X97265570Y-60318698D01*
X97324099Y-60299304D01*
X97376766Y-60271779D01*
X97423296Y-60236314D01*
X97463414Y-60193100D01*
X97496848Y-60142328D01*
X97511284Y-60113484D01*
X97519929Y-60091727D01*
X97528499Y-60065590D01*
X97536178Y-60038121D01*
X97540334Y-60020200D01*
X97631053Y-60020200D01*
X97633839Y-60057041D01*
X97641837Y-60105088D01*
X97658704Y-60150297D01*
X97681452Y-60189270D01*
X97707134Y-60222286D01*
X97735771Y-60249180D01*
X97770191Y-60272374D01*
X97792540Y-60284394D01*
X97846142Y-60306290D01*
X97905763Y-60321619D01*
X97969489Y-60330169D01*
X98035411Y-60331726D01*
X98101617Y-60326079D01*
X98127820Y-60321741D01*
X98185161Y-60306912D01*
X98236425Y-60285555D01*
X98280935Y-60258128D01*
X98318014Y-60225088D01*
X98346987Y-60186894D01*
X98358369Y-60165694D01*
X98371963Y-60132529D01*
X98380155Y-60100943D01*
X98383642Y-60067136D01*
X98383251Y-60029931D01*
X98381623Y-60004669D01*
X98379049Y-59985930D01*
X98374702Y-59970077D01*
X98367753Y-59953475D01*
X98364102Y-59945897D01*
X98345732Y-59915715D01*
X98321284Y-59885986D01*
X98315736Y-59880267D01*
X98298035Y-59863777D01*
X98279551Y-59849407D01*
X98258995Y-59836598D01*
X98235080Y-59824790D01*
X98206519Y-59813424D01*
X98172024Y-59801939D01*
X98130307Y-59789776D01*
X98080082Y-59776376D01*
X98071940Y-59774277D01*
X98021422Y-59761118D01*
X97979855Y-59749799D01*
X97946275Y-59739939D01*
X97919719Y-59731156D01*
X97899224Y-59723066D01*
X97883826Y-59715289D01*
X97872562Y-59707440D01*
X97864469Y-59699139D01*
X97858584Y-59690003D01*
X97858320Y-59689497D01*
X97852729Y-59671084D01*
X97850965Y-59647919D01*
X97852911Y-59624353D01*
X97858451Y-59604736D01*
X97860706Y-59600418D01*
X97880619Y-59577262D01*
X97908020Y-59559810D01*
X97941779Y-59548376D01*
X97980770Y-59543277D01*
X98023865Y-59544830D01*
X98046715Y-59548222D01*
X98086518Y-59559417D01*
X98118322Y-59576775D01*
X98142061Y-59600236D01*
X98157669Y-59629736D01*
X98164165Y-59656963D01*
X98167300Y-59679840D01*
X98353880Y-59679840D01*
X98353880Y-59658047D01*
X98349001Y-59615191D01*
X98335067Y-59572824D01*
X98313131Y-59532465D01*
X98284244Y-59495633D01*
X98249460Y-59463848D01*
X98209830Y-59438628D01*
X98197905Y-59432904D01*
X98164636Y-59419526D01*
X98131926Y-59409816D01*
X98097238Y-59403319D01*
X98058036Y-59399583D01*
X98011782Y-59398154D01*
X98003360Y-59398108D01*
X97970238Y-59398202D01*
X97944929Y-59398817D01*
X97925091Y-59400169D01*
X97908381Y-59402475D01*
X97892458Y-59405951D01*
X97879128Y-59409600D01*
X97825343Y-59429296D01*
X97778115Y-59455091D01*
X97738092Y-59486420D01*
X97705924Y-59522719D01*
X97682257Y-59563424D01*
X97672475Y-59589504D01*
X97667243Y-59608957D01*
X97664302Y-59627002D01*
X97663298Y-59647317D01*
X97663881Y-59673583D01*
X97664048Y-59677487D01*
X97668172Y-59718339D01*
X97677301Y-59752347D01*
X97692595Y-59782072D01*
X97715214Y-59810074D01*
X97731124Y-59825601D01*
X97750618Y-59842225D01*
X97771087Y-59856862D01*
X97793816Y-59870053D01*
X97820090Y-59882338D01*
X97851193Y-59894258D01*
X97888410Y-59906354D01*
X97933026Y-59919166D01*
X97986324Y-59933235D01*
X97987670Y-59933580D01*
X98033356Y-59945623D01*
X98070413Y-59956314D01*
X98100189Y-59966226D01*
X98124031Y-59975932D01*
X98143286Y-59986006D01*
X98159301Y-59997021D01*
X98173424Y-60009552D01*
X98178620Y-60014877D01*
X98186382Y-60023864D01*
X98190939Y-60032437D01*
X98193137Y-60043678D01*
X98193820Y-60060673D01*
X98193860Y-60070459D01*
X98193482Y-60091327D01*
X98191790Y-60105400D01*
X98187945Y-60116033D01*
X98181105Y-60126579D01*
X98179171Y-60129148D01*
X98160698Y-60146765D01*
X98133744Y-60162946D01*
X98130911Y-60164313D01*
X98117400Y-60170535D01*
X98106057Y-60174877D01*
X98094606Y-60177674D01*
X98080772Y-60179264D01*
X98062277Y-60179982D01*
X98036846Y-60180165D01*
X98023680Y-60180163D01*
X97993592Y-60179971D01*
X97971362Y-60179270D01*
X97954689Y-60177793D01*
X97941272Y-60175271D01*
X97928811Y-60171437D01*
X97920145Y-60168120D01*
X97885524Y-60149601D01*
X97857298Y-60124976D01*
X97836528Y-60095540D01*
X97824278Y-60062591D01*
X97821966Y-60048379D01*
X97819058Y-60020200D01*
X97631053Y-60020200D01*
X97540334Y-60020200D01*
X97542150Y-60012371D01*
X97545598Y-59991390D01*
X97546124Y-59983255D01*
X97546160Y-59969170D01*
X97362116Y-59971940D01*
X97352691Y-60009071D01*
X97339093Y-60050516D01*
X97320523Y-60085067D01*
X97295452Y-60115386D01*
X97287067Y-60123473D01*
X97259365Y-60145087D01*
X97229684Y-60159603D01*
X97195085Y-60168259D01*
X97174775Y-60170799D01*
X97125063Y-60170819D01*
X97078732Y-60161618D01*
X97036577Y-60143632D01*
X96999389Y-60117294D01*
X96967961Y-60083039D01*
X96944697Y-60044660D01*
X96928543Y-60007069D01*
X96917499Y-59969701D01*
X96910611Y-59928768D01*
X96907901Y-59898280D01*
X96907377Y-59835856D01*
X96914028Y-59778020D01*
X96927564Y-59725432D01*
X96947697Y-59678753D01*
X96974139Y-59638644D01*
X97006601Y-59605768D01*
X97044795Y-59580785D01*
X97046878Y-59579742D01*
X97066301Y-59570598D01*
X97082120Y-59564790D01*
X97098116Y-59561416D01*
X97118070Y-59559572D01*
X97134683Y-59558778D01*
X97178133Y-59559472D01*
X97215154Y-59565732D01*
X97248150Y-59578108D01*
X97267761Y-59589170D01*
X97298584Y-59613346D01*
X97323964Y-59642412D01*
X97342227Y-59674140D01*
X97350363Y-59698890D01*
X97353927Y-59715400D01*
X97541540Y-59715400D01*
X97538248Y-59696350D01*
X97525740Y-59643377D01*
X97507087Y-59596871D01*
X97481041Y-59554430D01*
X97446352Y-59513650D01*
X97439781Y-59506984D01*
X97397265Y-59469673D01*
X97352329Y-59440763D01*
X97302295Y-59418682D01*
X97274092Y-59409584D01*
X97257169Y-59405052D01*
X97241258Y-59401857D01*
X97224019Y-59399783D01*
X97203110Y-59398613D01*
X97176188Y-59398130D01*
X97149920Y-59398090D01*
X97109364Y-59398680D01*
X97076386Y-59400568D01*
X97048436Y-59404239D01*
X97022966Y-59410181D01*
X96997426Y-59418880D01*
X96969266Y-59430822D01*
X96962771Y-59433793D01*
X96907628Y-59464667D01*
X96858666Y-59503220D01*
X96816225Y-59548815D01*
X96780645Y-59600817D01*
X96752267Y-59658590D01*
X96731431Y-59721500D01*
X96718477Y-59788910D01*
X96713745Y-59860184D01*
X96570800Y-59860184D01*
X96570800Y-59415680D01*
X96377760Y-59415680D01*
X96377760Y-60314840D01*
X96001840Y-60314840D01*
X96001840Y-59578240D01*
X96271080Y-59578240D01*
X96271080Y-59415680D01*
X95534480Y-59415680D01*
X95534480Y-59578240D01*
X95385265Y-59578240D01*
X95384042Y-59576070D01*
X95382302Y-59573487D01*
X95343342Y-59525002D01*
X95297230Y-59483135D01*
X95245061Y-59448576D01*
X95187930Y-59422012D01*
X95166331Y-59415680D01*
X95126936Y-59404131D01*
X95106372Y-59400289D01*
X95079291Y-59397447D01*
X95046083Y-59396265D01*
X95009732Y-59396627D01*
X94973223Y-59398420D01*
X94939540Y-59401530D01*
X94911667Y-59405843D01*
X94902020Y-59408091D01*
X94872427Y-59418076D01*
X94838752Y-59432615D01*
X94804568Y-59449912D01*
X94773452Y-59468172D01*
X94751033Y-59483939D01*
X94709017Y-59523520D01*
X94671784Y-59571258D01*
X94639974Y-59626037D01*
X94614229Y-59686736D01*
X94595189Y-59752238D01*
X94593772Y-59758580D01*
X94590929Y-59778124D01*
X94588898Y-59806036D01*
X94587775Y-59840548D01*
X94587600Y-59872880D01*
X94405185Y-59872880D01*
X94391132Y-59860865D01*
X94360031Y-59842835D01*
X94320354Y-59823527D01*
X94350665Y-59804818D01*
X94386357Y-59777026D01*
X94414506Y-59742526D01*
X94428177Y-59717535D01*
X94433358Y-59704857D01*
X94436713Y-59692076D01*
X94438604Y-59676525D01*
X94439392Y-59655534D01*
X94439475Y-59634120D01*
X94439023Y-59606051D01*
X94437626Y-59585229D01*
X94434898Y-59568758D01*
X94430451Y-59553740D01*
X94427807Y-59546735D01*
X94408202Y-59510775D01*
X94380231Y-59479705D01*
X94344959Y-59454637D01*
X94333931Y-59448850D01*
X94318687Y-59441743D01*
X94303759Y-59435721D01*
X94288180Y-59430696D01*
X94270979Y-59426579D01*
X94251190Y-59423281D01*
X94227841Y-59420713D01*
X94199965Y-59418788D01*
X94166593Y-59417415D01*
X94126755Y-59416507D01*
X94079483Y-59415975D01*
X94023809Y-59415729D01*
X93971714Y-59415680D01*
X93736160Y-59415680D01*
X93736160Y-60314840D01*
X93281276Y-60314840D01*
X93330680Y-60299513D01*
X93387288Y-60271896D01*
X93437909Y-60236119D01*
X93482433Y-60192251D01*
X93520751Y-60140361D01*
X93534947Y-60116230D01*
X93561736Y-60057298D01*
X93580506Y-59993698D01*
X93591294Y-59926955D01*
X93594133Y-59858597D01*
X93589058Y-59790152D01*
X93576104Y-59723145D01*
X93555304Y-59659104D01*
X93526694Y-59599555D01*
X93523123Y-59593431D01*
X93487687Y-59543519D01*
X93444468Y-59499210D01*
X93394721Y-59461461D01*
X93339698Y-59431229D01*
X93297910Y-59415680D01*
X93283169Y-59410195D01*
X93251657Y-59403356D01*
X93213411Y-59398647D01*
X93171653Y-59396175D01*
X93129605Y-59396050D01*
X93090489Y-59398377D01*
X93060022Y-59402744D01*
X92997950Y-59419577D01*
X92942084Y-59443997D01*
X92891261Y-59476593D01*
X92856254Y-59506290D01*
X92813618Y-59553340D01*
X92777554Y-59607500D01*
X92748740Y-59667601D01*
X92730311Y-59723020D01*
X92723507Y-59756417D01*
X92718759Y-59796751D01*
X92716140Y-59840993D01*
X92715723Y-59886113D01*
X92443980Y-59886113D01*
X92445288Y-59884990D01*
X92456167Y-59878796D01*
X92465742Y-59874071D01*
X92501195Y-59852089D01*
X92530778Y-59822856D01*
X92554127Y-59787662D01*
X92570876Y-59747794D01*
X92580661Y-59704540D01*
X92583119Y-59659189D01*
X92577884Y-59613029D01*
X92564592Y-59567349D01*
X92557314Y-59550300D01*
X92543669Y-59528002D01*
X92523616Y-59503733D01*
X92499812Y-59480110D01*
X92474910Y-59459751D01*
X92451569Y-59445275D01*
X92450024Y-59444532D01*
X92436755Y-59438442D01*
X92424308Y-59433280D01*
X92411742Y-59428968D01*
X92398111Y-59425431D01*
X92382474Y-59422590D01*
X92363886Y-59420370D01*
X92341404Y-59418694D01*
X92314085Y-59417484D01*
X92280985Y-59416665D01*
X92241161Y-59416158D01*
X92193669Y-59415888D01*
X92137566Y-59415777D01*
X92096590Y-59415755D01*
X91836240Y-59415680D01*
X91836240Y-60314840D01*
X91638120Y-60314840D01*
X91638120Y-59182000D01*
X98587560Y-59182000D01*
G37*
X98587560Y-59182000D02*
X98587560Y-60543440D01*
X91638120Y-60543440D01*
X91638120Y-60314840D01*
X91836240Y-60314840D01*
X92034360Y-60314840D01*
X92034360Y-59958330D01*
X92160090Y-59960219D01*
X92203304Y-59961001D01*
X92237715Y-59962067D01*
X92264677Y-59963670D01*
X92285546Y-59966063D01*
X92301678Y-59969495D01*
X92314429Y-59974221D01*
X92325155Y-59980490D01*
X92335210Y-59988555D01*
X92340895Y-59993799D01*
X92353672Y-60008147D01*
X92364240Y-60025448D01*
X92372946Y-60046954D01*
X92380143Y-60073912D01*
X92386178Y-60107571D01*
X92391403Y-60149181D01*
X92395080Y-60187277D01*
X92397912Y-60215425D01*
X92401287Y-60242602D01*
X92404795Y-60265816D01*
X92408022Y-60282072D01*
X92408202Y-60282775D01*
X92412125Y-60298215D01*
X92414725Y-60309171D01*
X92415360Y-60312547D01*
X92420180Y-60313261D01*
X92433600Y-60313883D01*
X92454062Y-60314379D01*
X92480007Y-60314710D01*
X92509874Y-60314839D01*
X92512010Y-60314840D01*
X92608660Y-60314840D01*
X92601470Y-60300870D01*
X92595586Y-60287841D01*
X92590754Y-60272975D01*
X92586707Y-60254709D01*
X92583174Y-60231479D01*
X92579888Y-60201725D01*
X92576579Y-60163882D01*
X92575466Y-60149740D01*
X92571138Y-60100476D01*
X92566222Y-60059983D01*
X92560295Y-60026871D01*
X92552934Y-59999753D01*
X92543717Y-59977240D01*
X92532220Y-59957943D01*
X92518021Y-59940474D01*
X92508887Y-59931123D01*
X92492324Y-59917353D01*
X92474030Y-59905545D01*
X92463564Y-59900528D01*
X92450322Y-59894869D01*
X92442201Y-59890234D01*
X92440968Y-59888699D01*
X92443980Y-59886113D01*
X92715723Y-59886113D01*
X92717581Y-59929083D01*
X92721788Y-59966875D01*
X92724096Y-59979627D01*
X92742590Y-60046834D01*
X92768914Y-60108124D01*
X92802809Y-60163103D01*
X92844019Y-60211379D01*
X92892284Y-60252558D01*
X92911310Y-60265551D01*
X92960653Y-60293033D01*
X93011730Y-60312659D01*
X93067131Y-60325295D01*
X93103700Y-60329899D01*
X93122953Y-60331742D01*
X93137975Y-60333258D01*
X93146172Y-60334184D01*
X93146880Y-60334298D01*
X93152700Y-60334090D01*
X93166343Y-60333046D01*
X93185522Y-60331352D01*
X93199937Y-60329986D01*
X93268193Y-60318899D01*
X93281276Y-60314840D01*
X93736160Y-60314840D01*
X93950790Y-60314751D01*
X93998555Y-60314615D01*
X94044857Y-60314264D01*
X94088332Y-60313723D01*
X94127613Y-60313019D01*
X94161336Y-60312178D01*
X94188137Y-60311226D01*
X94206649Y-60310188D01*
X94211140Y-60309786D01*
X94267951Y-60300898D01*
X94317142Y-60286882D01*
X94360183Y-60267151D01*
X94398542Y-60241118D01*
X94412154Y-60229489D01*
X94442920Y-60194987D01*
X94465380Y-60154953D01*
X94479343Y-60109971D01*
X94484617Y-60060625D01*
X94482219Y-60016456D01*
X94471811Y-59968824D01*
X94453016Y-59926810D01*
X94426051Y-59890721D01*
X94405185Y-59872880D01*
X94587600Y-59872880D01*
X94587982Y-59906430D01*
X94588874Y-59932393D01*
X94590538Y-59953340D01*
X94593232Y-59971839D01*
X94597216Y-59990462D01*
X94600983Y-60005215D01*
X94623158Y-60070815D01*
X94652816Y-60130016D01*
X94689503Y-60182423D01*
X94732763Y-60227637D01*
X94782143Y-60265263D01*
X94837186Y-60294904D01*
X94897438Y-60316161D01*
X94962444Y-60328639D01*
X94972966Y-60329766D01*
X95035922Y-60331871D01*
X95101848Y-60326725D01*
X95115722Y-60324733D01*
X95174966Y-60310497D01*
X95231236Y-60287067D01*
X95283529Y-60255217D01*
X95330841Y-60215718D01*
X95372170Y-60169346D01*
X95406511Y-60116871D01*
X95419935Y-60090356D01*
X95443329Y-60028434D01*
X95458537Y-59962816D01*
X95465670Y-59895012D01*
X95464836Y-59826533D01*
X95456146Y-59758889D01*
X95439711Y-59693590D01*
X95415639Y-59632147D01*
X95385265Y-59578240D01*
X95534480Y-59578240D01*
X95803720Y-59578240D01*
X95803720Y-60314840D01*
X96001840Y-60314840D01*
X96377760Y-60314840D01*
X96570800Y-60314840D01*
X96570800Y-59860184D01*
X96713745Y-59860184D01*
X96714581Y-59897299D01*
X96722612Y-59968466D01*
X96738841Y-60034738D01*
X96762837Y-60095632D01*
X96794167Y-60150666D01*
X96832399Y-60199354D01*
X96877099Y-60241215D01*
X96927837Y-60275765D01*
X96984178Y-60302520D01*
X97045692Y-60320997D01*
X97101486Y-60329811D01*
X97120900Y-60331740D01*
X97136206Y-60333342D01*
X97144760Y-60334338D01*
X97145571Y-60334467D01*
X97151693Y-60334266D01*
X97165645Y-60333176D01*
X97185154Y-60331389D01*
X97201451Y-60329769D01*
X97265570Y-60318698D01*
X97324099Y-60299304D01*
X97376766Y-60271779D01*
X97423296Y-60236314D01*
X97463414Y-60193100D01*
X97496848Y-60142328D01*
X97511284Y-60113484D01*
X97519929Y-60091727D01*
X97528499Y-60065590D01*
X97536178Y-60038121D01*
X97540334Y-60020200D01*
X97631053Y-60020200D01*
X97633839Y-60057041D01*
X97641837Y-60105088D01*
X97658704Y-60150297D01*
X97681452Y-60189270D01*
X97707134Y-60222286D01*
X97735771Y-60249180D01*
X97770191Y-60272374D01*
X97792540Y-60284394D01*
X97846142Y-60306290D01*
X97905763Y-60321619D01*
X97969489Y-60330169D01*
X98035411Y-60331726D01*
X98101617Y-60326079D01*
X98127820Y-60321741D01*
X98185161Y-60306912D01*
X98236425Y-60285555D01*
X98280935Y-60258128D01*
X98318014Y-60225088D01*
X98346987Y-60186894D01*
X98358369Y-60165694D01*
X98371963Y-60132529D01*
X98380155Y-60100943D01*
X98383642Y-60067136D01*
X98383251Y-60029931D01*
X98381623Y-60004669D01*
X98379049Y-59985930D01*
X98374702Y-59970077D01*
X98367753Y-59953475D01*
X98364102Y-59945897D01*
X98345732Y-59915715D01*
X98321284Y-59885986D01*
X98315736Y-59880267D01*
X98298035Y-59863777D01*
X98279551Y-59849407D01*
X98258995Y-59836598D01*
X98235080Y-59824790D01*
X98206519Y-59813424D01*
X98172024Y-59801939D01*
X98130307Y-59789776D01*
X98080082Y-59776376D01*
X98071940Y-59774277D01*
X98021422Y-59761118D01*
X97979855Y-59749799D01*
X97946275Y-59739939D01*
X97919719Y-59731156D01*
X97899224Y-59723066D01*
X97883826Y-59715289D01*
X97872562Y-59707440D01*
X97864469Y-59699139D01*
X97858584Y-59690003D01*
X97858320Y-59689497D01*
X97852729Y-59671084D01*
X97850965Y-59647919D01*
X97852911Y-59624353D01*
X97858451Y-59604736D01*
X97860706Y-59600418D01*
X97880619Y-59577262D01*
X97908020Y-59559810D01*
X97941779Y-59548376D01*
X97980770Y-59543277D01*
X98023865Y-59544830D01*
X98046715Y-59548222D01*
X98086518Y-59559417D01*
X98118322Y-59576775D01*
X98142061Y-59600236D01*
X98157669Y-59629736D01*
X98164165Y-59656963D01*
X98167300Y-59679840D01*
X98353880Y-59679840D01*
X98353880Y-59658047D01*
X98349001Y-59615191D01*
X98335067Y-59572824D01*
X98313131Y-59532465D01*
X98284244Y-59495633D01*
X98249460Y-59463848D01*
X98209830Y-59438628D01*
X98197905Y-59432904D01*
X98164636Y-59419526D01*
X98131926Y-59409816D01*
X98097238Y-59403319D01*
X98058036Y-59399583D01*
X98011782Y-59398154D01*
X98003360Y-59398108D01*
X97970238Y-59398202D01*
X97944929Y-59398817D01*
X97925091Y-59400169D01*
X97908381Y-59402475D01*
X97892458Y-59405951D01*
X97879128Y-59409600D01*
X97825343Y-59429296D01*
X97778115Y-59455091D01*
X97738092Y-59486420D01*
X97705924Y-59522719D01*
X97682257Y-59563424D01*
X97672475Y-59589504D01*
X97667243Y-59608957D01*
X97664302Y-59627002D01*
X97663298Y-59647317D01*
X97663881Y-59673583D01*
X97664048Y-59677487D01*
X97668172Y-59718339D01*
X97677301Y-59752347D01*
X97692595Y-59782072D01*
X97715214Y-59810074D01*
X97731124Y-59825601D01*
X97750618Y-59842225D01*
X97771087Y-59856862D01*
X97793816Y-59870053D01*
X97820090Y-59882338D01*
X97851193Y-59894258D01*
X97888410Y-59906354D01*
X97933026Y-59919166D01*
X97986324Y-59933235D01*
X97987670Y-59933580D01*
X98033356Y-59945623D01*
X98070413Y-59956314D01*
X98100189Y-59966226D01*
X98124031Y-59975932D01*
X98143286Y-59986006D01*
X98159301Y-59997021D01*
X98173424Y-60009552D01*
X98178620Y-60014877D01*
X98186382Y-60023864D01*
X98190939Y-60032437D01*
X98193137Y-60043678D01*
X98193820Y-60060673D01*
X98193860Y-60070459D01*
X98193482Y-60091327D01*
X98191790Y-60105400D01*
X98187945Y-60116033D01*
X98181105Y-60126579D01*
X98179171Y-60129148D01*
X98160698Y-60146765D01*
X98133744Y-60162946D01*
X98130911Y-60164313D01*
X98117400Y-60170535D01*
X98106057Y-60174877D01*
X98094606Y-60177674D01*
X98080772Y-60179264D01*
X98062277Y-60179982D01*
X98036846Y-60180165D01*
X98023680Y-60180163D01*
X97993592Y-60179971D01*
X97971362Y-60179270D01*
X97954689Y-60177793D01*
X97941272Y-60175271D01*
X97928811Y-60171437D01*
X97920145Y-60168120D01*
X97885524Y-60149601D01*
X97857298Y-60124976D01*
X97836528Y-60095540D01*
X97824278Y-60062591D01*
X97821966Y-60048379D01*
X97819058Y-60020200D01*
X97631053Y-60020200D01*
X97540334Y-60020200D01*
X97542150Y-60012371D01*
X97545598Y-59991390D01*
X97546124Y-59983255D01*
X97546160Y-59969170D01*
X97362116Y-59971940D01*
X97352691Y-60009071D01*
X97339093Y-60050516D01*
X97320523Y-60085067D01*
X97295452Y-60115386D01*
X97287067Y-60123473D01*
X97259365Y-60145087D01*
X97229684Y-60159603D01*
X97195085Y-60168259D01*
X97174775Y-60170799D01*
X97125063Y-60170819D01*
X97078732Y-60161618D01*
X97036577Y-60143632D01*
X96999389Y-60117294D01*
X96967961Y-60083039D01*
X96944697Y-60044660D01*
X96928543Y-60007069D01*
X96917499Y-59969701D01*
X96910611Y-59928768D01*
X96907901Y-59898280D01*
X96907377Y-59835856D01*
X96914028Y-59778020D01*
X96927564Y-59725432D01*
X96947697Y-59678753D01*
X96974139Y-59638644D01*
X97006601Y-59605768D01*
X97044795Y-59580785D01*
X97046878Y-59579742D01*
X97066301Y-59570598D01*
X97082120Y-59564790D01*
X97098116Y-59561416D01*
X97118070Y-59559572D01*
X97134683Y-59558778D01*
X97178133Y-59559472D01*
X97215154Y-59565732D01*
X97248150Y-59578108D01*
X97267761Y-59589170D01*
X97298584Y-59613346D01*
X97323964Y-59642412D01*
X97342227Y-59674140D01*
X97350363Y-59698890D01*
X97353927Y-59715400D01*
X97541540Y-59715400D01*
X97538248Y-59696350D01*
X97525740Y-59643377D01*
X97507087Y-59596871D01*
X97481041Y-59554430D01*
X97446352Y-59513650D01*
X97439781Y-59506984D01*
X97397265Y-59469673D01*
X97352329Y-59440763D01*
X97302295Y-59418682D01*
X97274092Y-59409584D01*
X97257169Y-59405052D01*
X97241258Y-59401857D01*
X97224019Y-59399783D01*
X97203110Y-59398613D01*
X97176188Y-59398130D01*
X97149920Y-59398090D01*
X97109364Y-59398680D01*
X97076386Y-59400568D01*
X97048436Y-59404239D01*
X97022966Y-59410181D01*
X96997426Y-59418880D01*
X96969266Y-59430822D01*
X96962771Y-59433793D01*
X96907628Y-59464667D01*
X96858666Y-59503220D01*
X96816225Y-59548815D01*
X96780645Y-59600817D01*
X96752267Y-59658590D01*
X96731431Y-59721500D01*
X96718477Y-59788910D01*
X96713745Y-59860184D01*
X96570800Y-59860184D01*
X96570800Y-59415680D01*
X96377760Y-59415680D01*
X96377760Y-60314840D01*
X96001840Y-60314840D01*
X96001840Y-59578240D01*
X96271080Y-59578240D01*
X96271080Y-59415680D01*
X95534480Y-59415680D01*
X95534480Y-59578240D01*
X95385265Y-59578240D01*
X95384042Y-59576070D01*
X95382302Y-59573487D01*
X95343342Y-59525002D01*
X95297230Y-59483135D01*
X95245061Y-59448576D01*
X95187930Y-59422012D01*
X95166331Y-59415680D01*
X95126936Y-59404131D01*
X95106372Y-59400289D01*
X95079291Y-59397447D01*
X95046083Y-59396265D01*
X95009732Y-59396627D01*
X94973223Y-59398420D01*
X94939540Y-59401530D01*
X94911667Y-59405843D01*
X94902020Y-59408091D01*
X94872427Y-59418076D01*
X94838752Y-59432615D01*
X94804568Y-59449912D01*
X94773452Y-59468172D01*
X94751033Y-59483939D01*
X94709017Y-59523520D01*
X94671784Y-59571258D01*
X94639974Y-59626037D01*
X94614229Y-59686736D01*
X94595189Y-59752238D01*
X94593772Y-59758580D01*
X94590929Y-59778124D01*
X94588898Y-59806036D01*
X94587775Y-59840548D01*
X94587600Y-59872880D01*
X94405185Y-59872880D01*
X94391132Y-59860865D01*
X94360031Y-59842835D01*
X94320354Y-59823527D01*
X94350665Y-59804818D01*
X94386357Y-59777026D01*
X94414506Y-59742526D01*
X94428177Y-59717535D01*
X94433358Y-59704857D01*
X94436713Y-59692076D01*
X94438604Y-59676525D01*
X94439392Y-59655534D01*
X94439475Y-59634120D01*
X94439023Y-59606051D01*
X94437626Y-59585229D01*
X94434898Y-59568758D01*
X94430451Y-59553740D01*
X94427807Y-59546735D01*
X94408202Y-59510775D01*
X94380231Y-59479705D01*
X94344959Y-59454637D01*
X94333931Y-59448850D01*
X94318687Y-59441743D01*
X94303759Y-59435721D01*
X94288180Y-59430696D01*
X94270979Y-59426579D01*
X94251190Y-59423281D01*
X94227841Y-59420713D01*
X94199965Y-59418788D01*
X94166593Y-59417415D01*
X94126755Y-59416507D01*
X94079483Y-59415975D01*
X94023809Y-59415729D01*
X93971714Y-59415680D01*
X93736160Y-59415680D01*
X93736160Y-60314840D01*
X93281276Y-60314840D01*
X93330680Y-60299513D01*
X93387288Y-60271896D01*
X93437909Y-60236119D01*
X93482433Y-60192251D01*
X93520751Y-60140361D01*
X93534947Y-60116230D01*
X93561736Y-60057298D01*
X93580506Y-59993698D01*
X93591294Y-59926955D01*
X93594133Y-59858597D01*
X93589058Y-59790152D01*
X93576104Y-59723145D01*
X93555304Y-59659104D01*
X93526694Y-59599555D01*
X93523123Y-59593431D01*
X93487687Y-59543519D01*
X93444468Y-59499210D01*
X93394721Y-59461461D01*
X93339698Y-59431229D01*
X93297910Y-59415680D01*
X93283169Y-59410195D01*
X93251657Y-59403356D01*
X93213411Y-59398647D01*
X93171653Y-59396175D01*
X93129605Y-59396050D01*
X93090489Y-59398377D01*
X93060022Y-59402744D01*
X92997950Y-59419577D01*
X92942084Y-59443997D01*
X92891261Y-59476593D01*
X92856254Y-59506290D01*
X92813618Y-59553340D01*
X92777554Y-59607500D01*
X92748740Y-59667601D01*
X92730311Y-59723020D01*
X92723507Y-59756417D01*
X92718759Y-59796751D01*
X92716140Y-59840993D01*
X92715723Y-59886113D01*
X92443980Y-59886113D01*
X92445288Y-59884990D01*
X92456167Y-59878796D01*
X92465742Y-59874071D01*
X92501195Y-59852089D01*
X92530778Y-59822856D01*
X92554127Y-59787662D01*
X92570876Y-59747794D01*
X92580661Y-59704540D01*
X92583119Y-59659189D01*
X92577884Y-59613029D01*
X92564592Y-59567349D01*
X92557314Y-59550300D01*
X92543669Y-59528002D01*
X92523616Y-59503733D01*
X92499812Y-59480110D01*
X92474910Y-59459751D01*
X92451569Y-59445275D01*
X92450024Y-59444532D01*
X92436755Y-59438442D01*
X92424308Y-59433280D01*
X92411742Y-59428968D01*
X92398111Y-59425431D01*
X92382474Y-59422590D01*
X92363886Y-59420370D01*
X92341404Y-59418694D01*
X92314085Y-59417484D01*
X92280985Y-59416665D01*
X92241161Y-59416158D01*
X92193669Y-59415888D01*
X92137566Y-59415777D01*
X92096590Y-59415755D01*
X91836240Y-59415680D01*
X91836240Y-60314840D01*
X91638120Y-60314840D01*
X91638120Y-59182000D01*
X98587560Y-59182000D01*
X93202363Y-59561249D02*
X93244111Y-59571591D01*
X93244111Y-59571591D02*
X93280675Y-59589475D01*
X93280675Y-59589475D02*
X93313374Y-59615428D01*
X93313374Y-59615428D02*
X93323520Y-59625830D01*
X93323520Y-59625830D02*
X93344408Y-59651465D01*
X93344408Y-59651465D02*
X93361058Y-59679291D01*
X93361058Y-59679291D02*
X93375075Y-59712308D01*
X93375075Y-59712308D02*
X93383619Y-59738260D01*
X93383619Y-59738260D02*
X93389089Y-59757332D01*
X93389089Y-59757332D02*
X93392929Y-59774083D01*
X93392929Y-59774083D02*
X93395435Y-59791108D01*
X93395435Y-59791108D02*
X93396906Y-59810998D01*
X93396906Y-59810998D02*
X93397640Y-59836349D01*
X93397640Y-59836349D02*
X93397897Y-59862720D01*
X93397897Y-59862720D02*
X93397504Y-59903423D01*
X93397504Y-59903423D02*
X93395489Y-59936664D01*
X93395489Y-59936664D02*
X93391365Y-59965076D01*
X93391365Y-59965076D02*
X93384641Y-59991293D01*
X93384641Y-59991293D02*
X93374830Y-60017948D01*
X93374830Y-60017948D02*
X93364956Y-60040231D01*
X93364956Y-60040231D02*
X93343540Y-60078434D01*
X93343540Y-60078434D02*
X93317684Y-60109312D01*
X93317684Y-60109312D02*
X93285216Y-60135443D01*
X93285216Y-60135443D02*
X93284096Y-60136195D01*
X93284096Y-60136195D02*
X93247709Y-60154890D01*
X93247709Y-60154890D02*
X93205590Y-60166977D01*
X93205590Y-60166977D02*
X93160029Y-60172079D01*
X93160029Y-60172079D02*
X93113318Y-60169822D01*
X93113318Y-60169822D02*
X93096080Y-60167022D01*
X93096080Y-60167022D02*
X93054849Y-60153934D01*
X93054849Y-60153934D02*
X93017294Y-60131942D01*
X93017294Y-60131942D02*
X92984120Y-60101859D01*
X92984120Y-60101859D02*
X92956036Y-60064497D01*
X92956036Y-60064497D02*
X92933750Y-60020670D01*
X92933750Y-60020670D02*
X92917970Y-59971191D01*
X92917970Y-59971191D02*
X92915414Y-59959494D01*
X92915414Y-59959494D02*
X92911640Y-59932356D01*
X92911640Y-59932356D02*
X92909551Y-59899022D01*
X92909551Y-59899022D02*
X92909084Y-59862378D01*
X92909084Y-59862378D02*
X92910176Y-59825314D01*
X92910176Y-59825314D02*
X92912764Y-59790718D01*
X92912764Y-59790718D02*
X92916785Y-59761479D01*
X92916785Y-59761479D02*
X92920040Y-59747056D01*
X92920040Y-59747056D02*
X92938771Y-59694970D01*
X92938771Y-59694970D02*
X92963295Y-59651189D01*
X92963295Y-59651189D02*
X92993561Y-59615756D01*
X92993561Y-59615756D02*
X93029517Y-59588711D01*
X93029517Y-59588711D02*
X93071111Y-59570097D01*
X93071111Y-59570097D02*
X93118291Y-59559955D01*
X93118291Y-59559955D02*
X93154113Y-59557920D01*
X93154113Y-59557920D02*
X93202363Y-59561249D01*
X93202363Y-59561249D02*
X93202363Y-59561249D01*
G36*
X93202363Y-59561249D02*
G01*
X93244111Y-59571591D01*
X93280675Y-59589475D01*
X93313374Y-59615428D01*
X93323520Y-59625830D01*
X93344408Y-59651465D01*
X93361058Y-59679291D01*
X93375075Y-59712308D01*
X93383619Y-59738260D01*
X93389089Y-59757332D01*
X93392929Y-59774083D01*
X93395435Y-59791108D01*
X93396906Y-59810998D01*
X93397640Y-59836349D01*
X93397897Y-59862720D01*
X93397504Y-59903423D01*
X93395489Y-59936664D01*
X93391365Y-59965076D01*
X93384641Y-59991293D01*
X93374830Y-60017948D01*
X93364956Y-60040231D01*
X93343540Y-60078434D01*
X93317684Y-60109312D01*
X93285216Y-60135443D01*
X93284096Y-60136195D01*
X93247709Y-60154890D01*
X93205590Y-60166977D01*
X93160029Y-60172079D01*
X93113318Y-60169822D01*
X93096080Y-60167022D01*
X93054849Y-60153934D01*
X93017294Y-60131942D01*
X92984120Y-60101859D01*
X92956036Y-60064497D01*
X92933750Y-60020670D01*
X92917970Y-59971191D01*
X92915414Y-59959494D01*
X92911640Y-59932356D01*
X92909551Y-59899022D01*
X92909084Y-59862378D01*
X92910176Y-59825314D01*
X92912764Y-59790718D01*
X92916785Y-59761479D01*
X92920040Y-59747056D01*
X92938771Y-59694970D01*
X92963295Y-59651189D01*
X92993561Y-59615756D01*
X93029517Y-59588711D01*
X93071111Y-59570097D01*
X93118291Y-59559955D01*
X93154113Y-59557920D01*
X93202363Y-59561249D01*
G37*
X93202363Y-59561249D02*
X93244111Y-59571591D01*
X93280675Y-59589475D01*
X93313374Y-59615428D01*
X93323520Y-59625830D01*
X93344408Y-59651465D01*
X93361058Y-59679291D01*
X93375075Y-59712308D01*
X93383619Y-59738260D01*
X93389089Y-59757332D01*
X93392929Y-59774083D01*
X93395435Y-59791108D01*
X93396906Y-59810998D01*
X93397640Y-59836349D01*
X93397897Y-59862720D01*
X93397504Y-59903423D01*
X93395489Y-59936664D01*
X93391365Y-59965076D01*
X93384641Y-59991293D01*
X93374830Y-60017948D01*
X93364956Y-60040231D01*
X93343540Y-60078434D01*
X93317684Y-60109312D01*
X93285216Y-60135443D01*
X93284096Y-60136195D01*
X93247709Y-60154890D01*
X93205590Y-60166977D01*
X93160029Y-60172079D01*
X93113318Y-60169822D01*
X93096080Y-60167022D01*
X93054849Y-60153934D01*
X93017294Y-60131942D01*
X92984120Y-60101859D01*
X92956036Y-60064497D01*
X92933750Y-60020670D01*
X92917970Y-59971191D01*
X92915414Y-59959494D01*
X92911640Y-59932356D01*
X92909551Y-59899022D01*
X92909084Y-59862378D01*
X92910176Y-59825314D01*
X92912764Y-59790718D01*
X92916785Y-59761479D01*
X92920040Y-59747056D01*
X92938771Y-59694970D01*
X92963295Y-59651189D01*
X92993561Y-59615756D01*
X93029517Y-59588711D01*
X93071111Y-59570097D01*
X93118291Y-59559955D01*
X93154113Y-59557920D01*
X93202363Y-59561249D01*
X92996009Y-56502239D02*
X93040257Y-56503205D01*
X93040257Y-56503205D02*
X93079813Y-56504929D01*
X93079813Y-56504929D02*
X93112558Y-56507426D01*
X93112558Y-56507426D02*
X93126560Y-56509086D01*
X93126560Y-56509086D02*
X93230482Y-56527479D01*
X93230482Y-56527479D02*
X93327789Y-56552704D01*
X93327789Y-56552704D02*
X93419809Y-56585254D01*
X93419809Y-56585254D02*
X93507868Y-56625624D01*
X93507868Y-56625624D02*
X93593292Y-56674307D01*
X93593292Y-56674307D02*
X93624400Y-56694461D01*
X93624400Y-56694461D02*
X93705536Y-56754796D01*
X93705536Y-56754796D02*
X93780493Y-56822977D01*
X93780493Y-56822977D02*
X93849058Y-56898627D01*
X93849058Y-56898627D02*
X93911018Y-56981370D01*
X93911018Y-56981370D02*
X93966161Y-57070829D01*
X93966161Y-57070829D02*
X94014275Y-57166627D01*
X94014275Y-57166627D02*
X94055147Y-57268387D01*
X94055147Y-57268387D02*
X94088565Y-57375733D01*
X94088565Y-57375733D02*
X94114316Y-57488288D01*
X94114316Y-57488288D02*
X94130597Y-57592396D01*
X94130597Y-57592396D02*
X94134450Y-57632480D01*
X94134450Y-57632480D02*
X94137178Y-57679757D01*
X94137178Y-57679757D02*
X94138783Y-57731720D01*
X94138783Y-57731720D02*
X94139265Y-57785860D01*
X94139265Y-57785860D02*
X94138625Y-57839668D01*
X94138625Y-57839668D02*
X94136865Y-57890635D01*
X94136865Y-57890635D02*
X94133984Y-57936253D01*
X94133984Y-57936253D02*
X94130466Y-57970420D01*
X94130466Y-57970420D02*
X94110594Y-58089623D01*
X94110594Y-58089623D02*
X94082859Y-58202739D01*
X94082859Y-58202739D02*
X94047336Y-58309649D01*
X94047336Y-58309649D02*
X94004101Y-58410232D01*
X94004101Y-58410232D02*
X93953229Y-58504370D01*
X93953229Y-58504370D02*
X93894795Y-58591942D01*
X93894795Y-58591942D02*
X93828875Y-58672829D01*
X93828875Y-58672829D02*
X93755544Y-58746910D01*
X93755544Y-58746910D02*
X93674877Y-58814067D01*
X93674877Y-58814067D02*
X93586951Y-58874180D01*
X93586951Y-58874180D02*
X93545660Y-58898549D01*
X93545660Y-58898549D02*
X93457576Y-58942676D01*
X93457576Y-58942676D02*
X93364373Y-58978612D01*
X93364373Y-58978612D02*
X93265619Y-59006491D01*
X93265619Y-59006491D02*
X93160880Y-59026449D01*
X93160880Y-59026449D02*
X93117019Y-59032266D01*
X93117019Y-59032266D02*
X93095721Y-59034154D01*
X93095721Y-59034154D02*
X93067352Y-59035792D01*
X93067352Y-59035792D02*
X93033805Y-59037153D01*
X93033805Y-59037153D02*
X92996971Y-59038210D01*
X92996971Y-59038210D02*
X92958739Y-59038938D01*
X92958739Y-59038938D02*
X92921002Y-59039310D01*
X92921002Y-59039310D02*
X92885651Y-59039300D01*
X92885651Y-59039300D02*
X92854576Y-59038880D01*
X92854576Y-59038880D02*
X92829669Y-59038025D01*
X92829669Y-59038025D02*
X92812822Y-59036707D01*
X92812822Y-59036707D02*
X92811600Y-59036541D01*
X92811600Y-59036541D02*
X92800896Y-59035115D01*
X92800896Y-59035115D02*
X92783257Y-59032888D01*
X92783257Y-59032888D02*
X92761837Y-59030255D01*
X92761837Y-59030255D02*
X92753180Y-59029208D01*
X92753180Y-59029208D02*
X92648306Y-59011636D01*
X92648306Y-59011636D02*
X92547123Y-58984774D01*
X92547123Y-58984774D02*
X92450056Y-58948953D01*
X92450056Y-58948953D02*
X92357531Y-58904507D01*
X92357531Y-58904507D02*
X92269973Y-58851766D01*
X92269973Y-58851766D02*
X92187808Y-58791062D01*
X92187808Y-58791062D02*
X92111463Y-58722726D01*
X92111463Y-58722726D02*
X92041362Y-58647091D01*
X92041362Y-58647091D02*
X91977931Y-58564488D01*
X91977931Y-58564488D02*
X91921598Y-58475249D01*
X91921598Y-58475249D02*
X91872786Y-58379705D01*
X91872786Y-58379705D02*
X91849599Y-58325340D01*
X91849599Y-58325340D02*
X91816004Y-58229614D01*
X91816004Y-58229614D02*
X91788642Y-58126690D01*
X91788642Y-58126690D02*
X91767401Y-58016130D01*
X91767401Y-58016130D02*
X91761737Y-57978040D01*
X91761737Y-57978040D02*
X91758540Y-57951259D01*
X91758540Y-57951259D02*
X91756149Y-57922074D01*
X91756149Y-57922074D02*
X91754490Y-57888734D01*
X91754490Y-57888734D02*
X91753483Y-57849490D01*
X91753483Y-57849490D02*
X91753052Y-57802591D01*
X91753052Y-57802591D02*
X91753025Y-57779920D01*
X91753025Y-57779920D02*
X91753212Y-57757627D01*
X91753212Y-57757627D02*
X92289718Y-57757627D01*
X92289718Y-57757627D02*
X92291335Y-57848619D01*
X92291335Y-57848619D02*
X92298604Y-57937872D01*
X92298604Y-57937872D02*
X92311524Y-58023432D01*
X92311524Y-58023432D02*
X92330095Y-58103344D01*
X92330095Y-58103344D02*
X92339830Y-58135520D01*
X92339830Y-58135520D02*
X92370147Y-58214543D01*
X92370147Y-58214543D02*
X92407383Y-58287639D01*
X92407383Y-58287639D02*
X92451073Y-58354189D01*
X92451073Y-58354189D02*
X92500754Y-58413578D01*
X92500754Y-58413578D02*
X92555961Y-58465188D01*
X92555961Y-58465188D02*
X92616230Y-58508404D01*
X92616230Y-58508404D02*
X92624229Y-58513263D01*
X92624229Y-58513263D02*
X92684908Y-58543764D01*
X92684908Y-58543764D02*
X92751833Y-58566976D01*
X92751833Y-58566976D02*
X92823986Y-58582717D01*
X92823986Y-58582717D02*
X92900348Y-58590799D01*
X92900348Y-58590799D02*
X92979901Y-58591040D01*
X92979901Y-58591040D02*
X93031110Y-58587091D01*
X93031110Y-58587091D02*
X93109594Y-58574106D01*
X93109594Y-58574106D02*
X93182524Y-58552618D01*
X93182524Y-58552618D02*
X93250000Y-58522568D01*
X93250000Y-58522568D02*
X93312122Y-58483893D01*
X93312122Y-58483893D02*
X93368987Y-58436536D01*
X93368987Y-58436536D02*
X93420695Y-58380435D01*
X93420695Y-58380435D02*
X93460446Y-58326164D01*
X93460446Y-58326164D02*
X93498895Y-58259675D01*
X93498895Y-58259675D02*
X93531574Y-58185791D01*
X93531574Y-58185791D02*
X93558279Y-58105616D01*
X93558279Y-58105616D02*
X93578811Y-58020251D01*
X93578811Y-58020251D02*
X93592967Y-57930801D01*
X93592967Y-57930801D02*
X93600546Y-57838366D01*
X93600546Y-57838366D02*
X93601346Y-57744050D01*
X93601346Y-57744050D02*
X93595167Y-57648956D01*
X93595167Y-57648956D02*
X93590872Y-57612280D01*
X93590872Y-57612280D02*
X93574460Y-57515809D01*
X93574460Y-57515809D02*
X93551647Y-57426167D01*
X93551647Y-57426167D02*
X93522562Y-57343612D01*
X93522562Y-57343612D02*
X93487334Y-57268403D01*
X93487334Y-57268403D02*
X93446092Y-57200799D01*
X93446092Y-57200799D02*
X93398964Y-57141057D01*
X93398964Y-57141057D02*
X93346079Y-57089436D01*
X93346079Y-57089436D02*
X93320155Y-57068714D01*
X93320155Y-57068714D02*
X93286081Y-57045776D01*
X93286081Y-57045776D02*
X93246127Y-57022988D01*
X93246127Y-57022988D02*
X93204155Y-57002332D01*
X93204155Y-57002332D02*
X93164024Y-56985790D01*
X93164024Y-56985790D02*
X93147988Y-56980338D01*
X93147988Y-56980338D02*
X93087450Y-56965453D01*
X93087450Y-56965453D02*
X93021400Y-56956376D01*
X93021400Y-56956376D02*
X92952420Y-56953081D01*
X92952420Y-56953081D02*
X92883095Y-56955538D01*
X92883095Y-56955538D02*
X92816007Y-56963723D01*
X92816007Y-56963723D02*
X92753740Y-56977606D01*
X92753740Y-56977606D02*
X92730777Y-56984744D01*
X92730777Y-56984744D02*
X92665598Y-57012001D01*
X92665598Y-57012001D02*
X92602743Y-57048248D01*
X92602743Y-57048248D02*
X92543833Y-57092339D01*
X92543833Y-57092339D02*
X92490490Y-57143128D01*
X92490490Y-57143128D02*
X92464632Y-57172860D01*
X92464632Y-57172860D02*
X92439187Y-57207943D01*
X92439187Y-57207943D02*
X92413287Y-57250399D01*
X92413287Y-57250399D02*
X92388285Y-57297603D01*
X92388285Y-57297603D02*
X92365531Y-57346929D01*
X92365531Y-57346929D02*
X92346379Y-57395751D01*
X92346379Y-57395751D02*
X92339770Y-57415361D01*
X92339770Y-57415361D02*
X92318779Y-57493764D01*
X92318779Y-57493764D02*
X92303440Y-57578245D01*
X92303440Y-57578245D02*
X92293753Y-57666851D01*
X92293753Y-57666851D02*
X92289718Y-57757627D01*
X92289718Y-57757627D02*
X91753212Y-57757627D01*
X91753212Y-57757627D02*
X91753528Y-57720059D01*
X91753528Y-57720059D02*
X91755090Y-57667931D01*
X91755090Y-57667931D02*
X91757923Y-57621143D01*
X91757923Y-57621143D02*
X91762240Y-57577305D01*
X91762240Y-57577305D02*
X91768251Y-57534025D01*
X91768251Y-57534025D02*
X91776168Y-57488910D01*
X91776168Y-57488910D02*
X91780899Y-57464960D01*
X91780899Y-57464960D02*
X91807092Y-57357819D01*
X91807092Y-57357819D02*
X91841095Y-57254456D01*
X91841095Y-57254456D02*
X91882491Y-57155614D01*
X91882491Y-57155614D02*
X91930861Y-57062034D01*
X91930861Y-57062034D02*
X91985787Y-56974460D01*
X91985787Y-56974460D02*
X92046852Y-56893634D01*
X92046852Y-56893634D02*
X92113636Y-56820298D01*
X92113636Y-56820298D02*
X92176043Y-56763188D01*
X92176043Y-56763188D02*
X92256764Y-56701455D01*
X92256764Y-56701455D02*
X92341485Y-56648208D01*
X92341485Y-56648208D02*
X92430852Y-56603162D01*
X92430852Y-56603162D02*
X92525516Y-56566033D01*
X92525516Y-56566033D02*
X92626125Y-56536538D01*
X92626125Y-56536538D02*
X92733328Y-56514391D01*
X92733328Y-56514391D02*
X92750640Y-56511588D01*
X92750640Y-56511588D02*
X92778547Y-56508298D01*
X92778547Y-56508298D02*
X92814474Y-56505682D01*
X92814474Y-56505682D02*
X92856302Y-56503754D01*
X92856302Y-56503754D02*
X92901914Y-56502528D01*
X92901914Y-56502528D02*
X92949189Y-56502018D01*
X92949189Y-56502018D02*
X92996009Y-56502239D01*
X92996009Y-56502239D02*
X92996009Y-56502239D01*
G36*
X91755090Y-57667931D02*
G01*
X91757923Y-57621143D01*
X91762240Y-57577305D01*
X91768251Y-57534025D01*
X91776168Y-57488910D01*
X91780899Y-57464960D01*
X91807092Y-57357819D01*
X91841095Y-57254456D01*
X91882491Y-57155614D01*
X91930861Y-57062034D01*
X91985787Y-56974460D01*
X92046852Y-56893634D01*
X92113636Y-56820298D01*
X92176043Y-56763188D01*
X92256764Y-56701455D01*
X92341485Y-56648208D01*
X92430852Y-56603162D01*
X92525516Y-56566033D01*
X92626125Y-56536538D01*
X92733328Y-56514391D01*
X92750640Y-56511588D01*
X92778547Y-56508298D01*
X92814474Y-56505682D01*
X92856302Y-56503754D01*
X92901914Y-56502528D01*
X92949189Y-56502018D01*
X92996009Y-56502239D01*
X93040257Y-56503205D01*
X93079813Y-56504929D01*
X93112558Y-56507426D01*
X93126560Y-56509086D01*
X93230482Y-56527479D01*
X93327789Y-56552704D01*
X93419809Y-56585254D01*
X93507868Y-56625624D01*
X93593292Y-56674307D01*
X93624400Y-56694461D01*
X93705536Y-56754796D01*
X93780493Y-56822977D01*
X93849058Y-56898627D01*
X93911018Y-56981370D01*
X93966161Y-57070829D01*
X94014275Y-57166627D01*
X94055147Y-57268387D01*
X94088565Y-57375733D01*
X94114316Y-57488288D01*
X94130597Y-57592396D01*
X94134450Y-57632480D01*
X94137178Y-57679757D01*
X94138783Y-57731720D01*
X94139265Y-57785860D01*
X94138625Y-57839668D01*
X94136865Y-57890635D01*
X94133984Y-57936253D01*
X94130466Y-57970420D01*
X94110594Y-58089623D01*
X94082859Y-58202739D01*
X94047336Y-58309649D01*
X94004101Y-58410232D01*
X93953229Y-58504370D01*
X93894795Y-58591942D01*
X93828875Y-58672829D01*
X93755544Y-58746910D01*
X93674877Y-58814067D01*
X93586951Y-58874180D01*
X93545660Y-58898549D01*
X93457576Y-58942676D01*
X93364373Y-58978612D01*
X93265619Y-59006491D01*
X93160880Y-59026449D01*
X93117019Y-59032266D01*
X93095721Y-59034154D01*
X93067352Y-59035792D01*
X93033805Y-59037153D01*
X92996971Y-59038210D01*
X92958739Y-59038938D01*
X92921002Y-59039310D01*
X92885651Y-59039300D01*
X92854576Y-59038880D01*
X92829669Y-59038025D01*
X92812822Y-59036707D01*
X92811600Y-59036541D01*
X92800896Y-59035115D01*
X92783257Y-59032888D01*
X92761837Y-59030255D01*
X92753180Y-59029208D01*
X92648306Y-59011636D01*
X92547123Y-58984774D01*
X92450056Y-58948953D01*
X92357531Y-58904507D01*
X92269973Y-58851766D01*
X92187808Y-58791062D01*
X92111463Y-58722726D01*
X92041362Y-58647091D01*
X91977931Y-58564488D01*
X91921598Y-58475249D01*
X91872786Y-58379705D01*
X91849599Y-58325340D01*
X91816004Y-58229614D01*
X91788642Y-58126690D01*
X91767401Y-58016130D01*
X91761737Y-57978040D01*
X91758540Y-57951259D01*
X91756149Y-57922074D01*
X91754490Y-57888734D01*
X91753483Y-57849490D01*
X91753052Y-57802591D01*
X91753025Y-57779920D01*
X91753212Y-57757627D01*
X92289718Y-57757627D01*
X92291335Y-57848619D01*
X92298604Y-57937872D01*
X92311524Y-58023432D01*
X92330095Y-58103344D01*
X92339830Y-58135520D01*
X92370147Y-58214543D01*
X92407383Y-58287639D01*
X92451073Y-58354189D01*
X92500754Y-58413578D01*
X92555961Y-58465188D01*
X92616230Y-58508404D01*
X92624229Y-58513263D01*
X92684908Y-58543764D01*
X92751833Y-58566976D01*
X92823986Y-58582717D01*
X92900348Y-58590799D01*
X92979901Y-58591040D01*
X93031110Y-58587091D01*
X93109594Y-58574106D01*
X93182524Y-58552618D01*
X93250000Y-58522568D01*
X93312122Y-58483893D01*
X93368987Y-58436536D01*
X93420695Y-58380435D01*
X93460446Y-58326164D01*
X93498895Y-58259675D01*
X93531574Y-58185791D01*
X93558279Y-58105616D01*
X93578811Y-58020251D01*
X93592967Y-57930801D01*
X93600546Y-57838366D01*
X93601346Y-57744050D01*
X93595167Y-57648956D01*
X93590872Y-57612280D01*
X93574460Y-57515809D01*
X93551647Y-57426167D01*
X93522562Y-57343612D01*
X93487334Y-57268403D01*
X93446092Y-57200799D01*
X93398964Y-57141057D01*
X93346079Y-57089436D01*
X93320155Y-57068714D01*
X93286081Y-57045776D01*
X93246127Y-57022988D01*
X93204155Y-57002332D01*
X93164024Y-56985790D01*
X93147988Y-56980338D01*
X93087450Y-56965453D01*
X93021400Y-56956376D01*
X92952420Y-56953081D01*
X92883095Y-56955538D01*
X92816007Y-56963723D01*
X92753740Y-56977606D01*
X92730777Y-56984744D01*
X92665598Y-57012001D01*
X92602743Y-57048248D01*
X92543833Y-57092339D01*
X92490490Y-57143128D01*
X92464632Y-57172860D01*
X92439187Y-57207943D01*
X92413287Y-57250399D01*
X92388285Y-57297603D01*
X92365531Y-57346929D01*
X92346379Y-57395751D01*
X92339770Y-57415361D01*
X92318779Y-57493764D01*
X92303440Y-57578245D01*
X92293753Y-57666851D01*
X92289718Y-57757627D01*
X91753212Y-57757627D01*
X91753528Y-57720059D01*
X91755090Y-57667931D01*
G37*
X91755090Y-57667931D02*
X91757923Y-57621143D01*
X91762240Y-57577305D01*
X91768251Y-57534025D01*
X91776168Y-57488910D01*
X91780899Y-57464960D01*
X91807092Y-57357819D01*
X91841095Y-57254456D01*
X91882491Y-57155614D01*
X91930861Y-57062034D01*
X91985787Y-56974460D01*
X92046852Y-56893634D01*
X92113636Y-56820298D01*
X92176043Y-56763188D01*
X92256764Y-56701455D01*
X92341485Y-56648208D01*
X92430852Y-56603162D01*
X92525516Y-56566033D01*
X92626125Y-56536538D01*
X92733328Y-56514391D01*
X92750640Y-56511588D01*
X92778547Y-56508298D01*
X92814474Y-56505682D01*
X92856302Y-56503754D01*
X92901914Y-56502528D01*
X92949189Y-56502018D01*
X92996009Y-56502239D01*
X93040257Y-56503205D01*
X93079813Y-56504929D01*
X93112558Y-56507426D01*
X93126560Y-56509086D01*
X93230482Y-56527479D01*
X93327789Y-56552704D01*
X93419809Y-56585254D01*
X93507868Y-56625624D01*
X93593292Y-56674307D01*
X93624400Y-56694461D01*
X93705536Y-56754796D01*
X93780493Y-56822977D01*
X93849058Y-56898627D01*
X93911018Y-56981370D01*
X93966161Y-57070829D01*
X94014275Y-57166627D01*
X94055147Y-57268387D01*
X94088565Y-57375733D01*
X94114316Y-57488288D01*
X94130597Y-57592396D01*
X94134450Y-57632480D01*
X94137178Y-57679757D01*
X94138783Y-57731720D01*
X94139265Y-57785860D01*
X94138625Y-57839668D01*
X94136865Y-57890635D01*
X94133984Y-57936253D01*
X94130466Y-57970420D01*
X94110594Y-58089623D01*
X94082859Y-58202739D01*
X94047336Y-58309649D01*
X94004101Y-58410232D01*
X93953229Y-58504370D01*
X93894795Y-58591942D01*
X93828875Y-58672829D01*
X93755544Y-58746910D01*
X93674877Y-58814067D01*
X93586951Y-58874180D01*
X93545660Y-58898549D01*
X93457576Y-58942676D01*
X93364373Y-58978612D01*
X93265619Y-59006491D01*
X93160880Y-59026449D01*
X93117019Y-59032266D01*
X93095721Y-59034154D01*
X93067352Y-59035792D01*
X93033805Y-59037153D01*
X92996971Y-59038210D01*
X92958739Y-59038938D01*
X92921002Y-59039310D01*
X92885651Y-59039300D01*
X92854576Y-59038880D01*
X92829669Y-59038025D01*
X92812822Y-59036707D01*
X92811600Y-59036541D01*
X92800896Y-59035115D01*
X92783257Y-59032888D01*
X92761837Y-59030255D01*
X92753180Y-59029208D01*
X92648306Y-59011636D01*
X92547123Y-58984774D01*
X92450056Y-58948953D01*
X92357531Y-58904507D01*
X92269973Y-58851766D01*
X92187808Y-58791062D01*
X92111463Y-58722726D01*
X92041362Y-58647091D01*
X91977931Y-58564488D01*
X91921598Y-58475249D01*
X91872786Y-58379705D01*
X91849599Y-58325340D01*
X91816004Y-58229614D01*
X91788642Y-58126690D01*
X91767401Y-58016130D01*
X91761737Y-57978040D01*
X91758540Y-57951259D01*
X91756149Y-57922074D01*
X91754490Y-57888734D01*
X91753483Y-57849490D01*
X91753052Y-57802591D01*
X91753025Y-57779920D01*
X91753212Y-57757627D01*
X92289718Y-57757627D01*
X92291335Y-57848619D01*
X92298604Y-57937872D01*
X92311524Y-58023432D01*
X92330095Y-58103344D01*
X92339830Y-58135520D01*
X92370147Y-58214543D01*
X92407383Y-58287639D01*
X92451073Y-58354189D01*
X92500754Y-58413578D01*
X92555961Y-58465188D01*
X92616230Y-58508404D01*
X92624229Y-58513263D01*
X92684908Y-58543764D01*
X92751833Y-58566976D01*
X92823986Y-58582717D01*
X92900348Y-58590799D01*
X92979901Y-58591040D01*
X93031110Y-58587091D01*
X93109594Y-58574106D01*
X93182524Y-58552618D01*
X93250000Y-58522568D01*
X93312122Y-58483893D01*
X93368987Y-58436536D01*
X93420695Y-58380435D01*
X93460446Y-58326164D01*
X93498895Y-58259675D01*
X93531574Y-58185791D01*
X93558279Y-58105616D01*
X93578811Y-58020251D01*
X93592967Y-57930801D01*
X93600546Y-57838366D01*
X93601346Y-57744050D01*
X93595167Y-57648956D01*
X93590872Y-57612280D01*
X93574460Y-57515809D01*
X93551647Y-57426167D01*
X93522562Y-57343612D01*
X93487334Y-57268403D01*
X93446092Y-57200799D01*
X93398964Y-57141057D01*
X93346079Y-57089436D01*
X93320155Y-57068714D01*
X93286081Y-57045776D01*
X93246127Y-57022988D01*
X93204155Y-57002332D01*
X93164024Y-56985790D01*
X93147988Y-56980338D01*
X93087450Y-56965453D01*
X93021400Y-56956376D01*
X92952420Y-56953081D01*
X92883095Y-56955538D01*
X92816007Y-56963723D01*
X92753740Y-56977606D01*
X92730777Y-56984744D01*
X92665598Y-57012001D01*
X92602743Y-57048248D01*
X92543833Y-57092339D01*
X92490490Y-57143128D01*
X92464632Y-57172860D01*
X92439187Y-57207943D01*
X92413287Y-57250399D01*
X92388285Y-57297603D01*
X92365531Y-57346929D01*
X92346379Y-57395751D01*
X92339770Y-57415361D01*
X92318779Y-57493764D01*
X92303440Y-57578245D01*
X92293753Y-57666851D01*
X92289718Y-57757627D01*
X91753212Y-57757627D01*
X91753528Y-57720059D01*
X91755090Y-57667931D01*
X94034610Y-59908606D02*
X94068966Y-59908878D01*
X94068966Y-59908878D02*
X94102278Y-59909540D01*
X94102278Y-59909540D02*
X94132320Y-59910516D01*
X94132320Y-59910516D02*
X94156866Y-59911733D01*
X94156866Y-59911733D02*
X94173690Y-59913117D01*
X94173690Y-59913117D02*
X94174806Y-59913255D01*
X94174806Y-59913255D02*
X94213535Y-59922041D01*
X94213535Y-59922041D02*
X94244903Y-59937387D01*
X94244903Y-59937387D02*
X94268595Y-59959130D01*
X94268595Y-59959130D02*
X94272053Y-59963757D01*
X94272053Y-59963757D02*
X94278966Y-59974157D01*
X94278966Y-59974157D02*
X94283404Y-59983419D01*
X94283404Y-59983419D02*
X94285914Y-59994197D01*
X94285914Y-59994197D02*
X94287041Y-60009144D01*
X94287041Y-60009144D02*
X94287333Y-60030914D01*
X94287333Y-60030914D02*
X94287340Y-60037955D01*
X94287340Y-60037955D02*
X94287174Y-60061914D01*
X94287174Y-60061914D02*
X94286314Y-60078369D01*
X94286314Y-60078369D02*
X94284212Y-60089973D01*
X94284212Y-60089973D02*
X94280322Y-60099380D01*
X94280322Y-60099380D02*
X94274096Y-60109246D01*
X94274096Y-60109246D02*
X94272053Y-60112177D01*
X94272053Y-60112177D02*
X94253990Y-60131608D01*
X94253990Y-60131608D02*
X94231568Y-60146922D01*
X94231568Y-60146922D02*
X94223853Y-60150774D01*
X94223853Y-60150774D02*
X94216548Y-60153792D01*
X94216548Y-60153792D02*
X94208325Y-60156096D01*
X94208325Y-60156096D02*
X94197851Y-60157804D01*
X94197851Y-60157804D02*
X94183796Y-60159035D01*
X94183796Y-60159035D02*
X94164829Y-60159908D01*
X94164829Y-60159908D02*
X94139619Y-60160542D01*
X94139619Y-60160542D02*
X94106836Y-60161054D01*
X94106836Y-60161054D02*
X94067784Y-60161533D01*
X94067784Y-60161533D02*
X93929200Y-60163166D01*
X93929200Y-60163166D02*
X93929200Y-59908440D01*
X93929200Y-59908440D02*
X94034610Y-59908606D01*
X94034610Y-59908606D02*
X94034610Y-59908606D01*
G36*
X94034610Y-59908606D02*
G01*
X94068966Y-59908878D01*
X94102278Y-59909540D01*
X94132320Y-59910516D01*
X94156866Y-59911733D01*
X94173690Y-59913117D01*
X94174806Y-59913255D01*
X94213535Y-59922041D01*
X94244903Y-59937387D01*
X94268595Y-59959130D01*
X94272053Y-59963757D01*
X94278966Y-59974157D01*
X94283404Y-59983419D01*
X94285914Y-59994197D01*
X94287041Y-60009144D01*
X94287333Y-60030914D01*
X94287340Y-60037955D01*
X94287174Y-60061914D01*
X94286314Y-60078369D01*
X94284212Y-60089973D01*
X94280322Y-60099380D01*
X94274096Y-60109246D01*
X94272053Y-60112177D01*
X94253990Y-60131608D01*
X94231568Y-60146922D01*
X94223853Y-60150774D01*
X94216548Y-60153792D01*
X94208325Y-60156096D01*
X94197851Y-60157804D01*
X94183796Y-60159035D01*
X94164829Y-60159908D01*
X94139619Y-60160542D01*
X94106836Y-60161054D01*
X94067784Y-60161533D01*
X93929200Y-60163166D01*
X93929200Y-59908440D01*
X94034610Y-59908606D01*
G37*
X94034610Y-59908606D02*
X94068966Y-59908878D01*
X94102278Y-59909540D01*
X94132320Y-59910516D01*
X94156866Y-59911733D01*
X94173690Y-59913117D01*
X94174806Y-59913255D01*
X94213535Y-59922041D01*
X94244903Y-59937387D01*
X94268595Y-59959130D01*
X94272053Y-59963757D01*
X94278966Y-59974157D01*
X94283404Y-59983419D01*
X94285914Y-59994197D01*
X94287041Y-60009144D01*
X94287333Y-60030914D01*
X94287340Y-60037955D01*
X94287174Y-60061914D01*
X94286314Y-60078369D01*
X94284212Y-60089973D01*
X94280322Y-60099380D01*
X94274096Y-60109246D01*
X94272053Y-60112177D01*
X94253990Y-60131608D01*
X94231568Y-60146922D01*
X94223853Y-60150774D01*
X94216548Y-60153792D01*
X94208325Y-60156096D01*
X94197851Y-60157804D01*
X94183796Y-60159035D01*
X94164829Y-60159908D01*
X94139619Y-60160542D01*
X94106836Y-60161054D01*
X94067784Y-60161533D01*
X93929200Y-60163166D01*
X93929200Y-59908440D01*
X94034610Y-59908606D01*
X94026990Y-59563038D02*
X94075263Y-59563505D01*
X94075263Y-59563505D02*
X94114671Y-59564963D01*
X94114671Y-59564963D02*
X94146475Y-59567562D01*
X94146475Y-59567562D02*
X94171936Y-59571452D01*
X94171936Y-59571452D02*
X94192314Y-59576783D01*
X94192314Y-59576783D02*
X94208870Y-59583704D01*
X94208870Y-59583704D02*
X94211128Y-59584903D01*
X94211128Y-59584903D02*
X94230967Y-59601145D01*
X94230967Y-59601145D02*
X94244881Y-59623515D01*
X94244881Y-59623515D02*
X94252819Y-59649848D01*
X94252819Y-59649848D02*
X94254727Y-59677981D01*
X94254727Y-59677981D02*
X94250553Y-59705750D01*
X94250553Y-59705750D02*
X94240243Y-59730990D01*
X94240243Y-59730990D02*
X94223745Y-59751538D01*
X94223745Y-59751538D02*
X94215348Y-59757994D01*
X94215348Y-59757994D02*
X94203189Y-59765109D01*
X94203189Y-59765109D02*
X94190000Y-59770645D01*
X94190000Y-59770645D02*
X94174358Y-59774792D01*
X94174358Y-59774792D02*
X94154841Y-59777738D01*
X94154841Y-59777738D02*
X94130026Y-59779672D01*
X94130026Y-59779672D02*
X94098491Y-59780783D01*
X94098491Y-59780783D02*
X94058814Y-59781259D01*
X94058814Y-59781259D02*
X94039690Y-59781315D01*
X94039690Y-59781315D02*
X93929200Y-59781440D01*
X93929200Y-59781440D02*
X93929200Y-59563000D01*
X93929200Y-59563000D02*
X94026990Y-59563038D01*
X94026990Y-59563038D02*
X94026990Y-59563038D01*
G36*
X94026990Y-59563038D02*
G01*
X94075263Y-59563505D01*
X94114671Y-59564963D01*
X94146475Y-59567562D01*
X94171936Y-59571452D01*
X94192314Y-59576783D01*
X94208870Y-59583704D01*
X94211128Y-59584903D01*
X94230967Y-59601145D01*
X94244881Y-59623515D01*
X94252819Y-59649848D01*
X94254727Y-59677981D01*
X94250553Y-59705750D01*
X94240243Y-59730990D01*
X94223745Y-59751538D01*
X94215348Y-59757994D01*
X94203189Y-59765109D01*
X94190000Y-59770645D01*
X94174358Y-59774792D01*
X94154841Y-59777738D01*
X94130026Y-59779672D01*
X94098491Y-59780783D01*
X94058814Y-59781259D01*
X94039690Y-59781315D01*
X93929200Y-59781440D01*
X93929200Y-59563000D01*
X94026990Y-59563038D01*
G37*
X94026990Y-59563038D02*
X94075263Y-59563505D01*
X94114671Y-59564963D01*
X94146475Y-59567562D01*
X94171936Y-59571452D01*
X94192314Y-59576783D01*
X94208870Y-59583704D01*
X94211128Y-59584903D01*
X94230967Y-59601145D01*
X94244881Y-59623515D01*
X94252819Y-59649848D01*
X94254727Y-59677981D01*
X94250553Y-59705750D01*
X94240243Y-59730990D01*
X94223745Y-59751538D01*
X94215348Y-59757994D01*
X94203189Y-59765109D01*
X94190000Y-59770645D01*
X94174358Y-59774792D01*
X94154841Y-59777738D01*
X94130026Y-59779672D01*
X94098491Y-59780783D01*
X94058814Y-59781259D01*
X94039690Y-59781315D01*
X93929200Y-59781440D01*
X93929200Y-59563000D01*
X94026990Y-59563038D01*
X96301560Y-57007760D02*
X95575120Y-57007760D01*
X95575120Y-57007760D02*
X95575120Y-58988960D01*
X95575120Y-58988960D02*
X95036640Y-58988960D01*
X95036640Y-58988960D02*
X95036640Y-57007760D01*
X95036640Y-57007760D02*
X94305014Y-57007760D01*
X94305014Y-57007760D02*
X94307660Y-56558180D01*
X94307660Y-56558180D02*
X96301560Y-56555614D01*
X96301560Y-56555614D02*
X96301560Y-57007760D01*
X96301560Y-57007760D02*
X96301560Y-57007760D01*
G36*
X96301560Y-57007760D02*
G01*
X95575120Y-57007760D01*
X95575120Y-58988960D01*
X95036640Y-58988960D01*
X95036640Y-57007760D01*
X94305014Y-57007760D01*
X94307660Y-56558180D01*
X96301560Y-56555614D01*
X96301560Y-57007760D01*
G37*
X96301560Y-57007760D02*
X95575120Y-57007760D01*
X95575120Y-58988960D01*
X95036640Y-58988960D01*
X95036640Y-57007760D01*
X94305014Y-57007760D01*
X94307660Y-56558180D01*
X96301560Y-56555614D01*
X96301560Y-57007760D01*
X92330276Y-59579886D02*
X92355045Y-59595529D01*
X92355045Y-59595529D02*
X92372363Y-59615241D01*
X92372363Y-59615241D02*
X92383211Y-59640657D01*
X92383211Y-59640657D02*
X92388569Y-59673412D01*
X92388569Y-59673412D02*
X92388872Y-59677631D01*
X92388872Y-59677631D02*
X92388294Y-59718858D01*
X92388294Y-59718858D02*
X92380691Y-59752966D01*
X92380691Y-59752966D02*
X92365901Y-59780324D01*
X92365901Y-59780324D02*
X92343767Y-59801304D01*
X92343767Y-59801304D02*
X92332515Y-59808156D01*
X92332515Y-59808156D02*
X92325791Y-59811523D01*
X92325791Y-59811523D02*
X92318825Y-59814172D01*
X92318825Y-59814172D02*
X92310324Y-59816206D01*
X92310324Y-59816206D02*
X92298999Y-59817729D01*
X92298999Y-59817729D02*
X92283559Y-59818843D01*
X92283559Y-59818843D02*
X92262712Y-59819651D01*
X92262712Y-59819651D02*
X92235168Y-59820257D01*
X92235168Y-59820257D02*
X92199635Y-59820764D01*
X92199635Y-59820764D02*
X92170162Y-59821104D01*
X92170162Y-59821104D02*
X92029104Y-59822669D01*
X92029104Y-59822669D02*
X92030462Y-59694104D01*
X92030462Y-59694104D02*
X92031820Y-59565540D01*
X92031820Y-59565540D02*
X92301060Y-59565540D01*
X92301060Y-59565540D02*
X92330276Y-59579886D01*
X92330276Y-59579886D02*
X92330276Y-59579886D01*
G36*
X92330276Y-59579886D02*
G01*
X92355045Y-59595529D01*
X92372363Y-59615241D01*
X92383211Y-59640657D01*
X92388569Y-59673412D01*
X92388872Y-59677631D01*
X92388294Y-59718858D01*
X92380691Y-59752966D01*
X92365901Y-59780324D01*
X92343767Y-59801304D01*
X92332515Y-59808156D01*
X92325791Y-59811523D01*
X92318825Y-59814172D01*
X92310324Y-59816206D01*
X92298999Y-59817729D01*
X92283559Y-59818843D01*
X92262712Y-59819651D01*
X92235168Y-59820257D01*
X92199635Y-59820764D01*
X92170162Y-59821104D01*
X92029104Y-59822669D01*
X92030462Y-59694104D01*
X92031820Y-59565540D01*
X92301060Y-59565540D01*
X92330276Y-59579886D01*
G37*
X92330276Y-59579886D02*
X92355045Y-59595529D01*
X92372363Y-59615241D01*
X92383211Y-59640657D01*
X92388569Y-59673412D01*
X92388872Y-59677631D01*
X92388294Y-59718858D01*
X92380691Y-59752966D01*
X92365901Y-59780324D01*
X92343767Y-59801304D01*
X92332515Y-59808156D01*
X92325791Y-59811523D01*
X92318825Y-59814172D01*
X92310324Y-59816206D01*
X92298999Y-59817729D01*
X92283559Y-59818843D01*
X92262712Y-59819651D01*
X92235168Y-59820257D01*
X92199635Y-59820764D01*
X92170162Y-59821104D01*
X92029104Y-59822669D01*
X92030462Y-59694104D01*
X92031820Y-59565540D01*
X92301060Y-59565540D01*
X92330276Y-59579886D01*
D12*
%TO.C,U3*%
X118340000Y-96290000D02*
X118340000Y-99290000D01*
X115340000Y-96290000D02*
X115340000Y-100290000D01*
%TD*%
M02*
