%TF.GenerationSoftware,KiCad,Pcbnew,(6.0.0-0)*%
%TF.CreationDate,2022-11-20T21:56:22+02:00*%
%TF.ProjectId,realant_esp32,7265616c-616e-4745-9f65-737033322e6b,1.2*%
%TF.SameCoordinates,Original*%
%TF.FileFunction,Soldermask,Top*%
%TF.FilePolarity,Negative*%
%FSLAX46Y46*%
G04 Gerber Fmt 4.6, Leading zero omitted, Abs format (unit mm)*
G04 Created by KiCad (PCBNEW (6.0.0-0)) date 2022-11-20 21:56:22*
%MOMM*%
%LPD*%
G01*
G04 APERTURE LIST*
G04 Aperture macros list*
%AMRoundRect*
0 Rectangle with rounded corners*
0 $1 Rounding radius*
0 $2 $3 $4 $5 $6 $7 $8 $9 X,Y pos of 4 corners*
0 Add a 4 corners polygon primitive as box body*
4,1,4,$2,$3,$4,$5,$6,$7,$8,$9,$2,$3,0*
0 Add four circle primitives for the rounded corners*
1,1,$1+$1,$2,$3*
1,1,$1+$1,$4,$5*
1,1,$1+$1,$6,$7*
1,1,$1+$1,$8,$9*
0 Add four rect primitives between the rounded corners*
20,1,$1+$1,$2,$3,$4,$5,0*
20,1,$1+$1,$4,$5,$6,$7,0*
20,1,$1+$1,$6,$7,$8,$9,0*
20,1,$1+$1,$8,$9,$2,$3,0*%
G04 Aperture macros list end*
%ADD10C,5.500000*%
%ADD11RoundRect,0.250000X-0.725000X0.600000X-0.725000X-0.600000X0.725000X-0.600000X0.725000X0.600000X0*%
%ADD12O,1.950000X1.700000*%
%ADD13RoundRect,0.250000X-0.450000X0.350000X-0.450000X-0.350000X0.450000X-0.350000X0.450000X0.350000X0*%
%ADD14R,1.600000X1.600000*%
%ADD15C,1.600000*%
%ADD16RoundRect,0.250000X0.450000X-0.350000X0.450000X0.350000X-0.450000X0.350000X-0.450000X-0.350000X0*%
%ADD17O,3.000000X1.700000*%
%ADD18C,1.700000*%
%ADD19O,1.700000X1.700000*%
%ADD20R,1.500000X2.000000*%
%ADD21R,3.800000X2.000000*%
%ADD22C,3.000000*%
%ADD23RoundRect,0.250001X0.499999X0.759999X-0.499999X0.759999X-0.499999X-0.759999X0.499999X-0.759999X0*%
%ADD24O,1.500000X2.020000*%
%ADD25RoundRect,0.250000X-0.475000X0.337500X-0.475000X-0.337500X0.475000X-0.337500X0.475000X0.337500X0*%
%ADD26RoundRect,0.300000X-0.700000X0.300000X-0.700000X-0.300000X0.700000X-0.300000X0.700000X0.300000X0*%
%ADD27O,2.000000X1.200000*%
%ADD28R,0.300000X1.600000*%
G04 APERTURE END LIST*
D10*
%TO.C,REF\u002A\u002A*%
X86000000Y-119000000D03*
%TD*%
D11*
%TO.C,J1*%
X74930000Y-70000000D03*
D12*
X74930000Y-72500000D03*
X74930000Y-75000000D03*
%TD*%
D13*
%TO.C,R2*%
X111760000Y-96520000D03*
X111760000Y-98520000D03*
%TD*%
D11*
%TO.C,J4*%
X117300000Y-82500000D03*
D12*
X117300000Y-85000000D03*
X117300000Y-87500000D03*
%TD*%
D10*
%TO.C,REF\u002A\u002A*%
X104500000Y-119000000D03*
%TD*%
D13*
%TO.C,R4*%
X111200000Y-72000000D03*
X111200000Y-74000000D03*
%TD*%
D14*
%TO.C,C2*%
X74000000Y-111000000D03*
D15*
X76500000Y-111000000D03*
%TD*%
D16*
%TO.C,R3*%
X111940000Y-83700000D03*
X111940000Y-81700000D03*
%TD*%
D11*
%TO.C,J3*%
X117320000Y-70000000D03*
D12*
X117320000Y-72500000D03*
X117320000Y-75000000D03*
%TD*%
D13*
%TO.C,R1*%
X111200000Y-67600000D03*
X111200000Y-69600000D03*
%TD*%
D14*
%TO.C,C3*%
X74930000Y-93980000D03*
D15*
X77430000Y-93980000D03*
%TD*%
D17*
%TO.C,U2*%
X103505000Y-109855000D03*
D18*
X104140000Y-109855000D03*
X102870000Y-109855000D03*
D19*
X102870000Y-107315000D03*
D18*
X104140000Y-107315000D03*
D17*
X103505000Y-107315000D03*
X103505000Y-104775000D03*
D19*
X102870000Y-104775000D03*
D18*
X104140000Y-104775000D03*
D19*
X102870000Y-102235000D03*
D18*
X104140000Y-102235000D03*
D17*
X103505000Y-102235000D03*
D18*
X104140000Y-99695000D03*
D19*
X102870000Y-99695000D03*
D17*
X103505000Y-99695000D03*
X103505000Y-97155000D03*
D19*
X102870000Y-97155000D03*
D18*
X104140000Y-97155000D03*
D19*
X102870000Y-94615000D03*
D17*
X103505000Y-94615000D03*
D18*
X104140000Y-94615000D03*
D17*
X103505000Y-92075000D03*
D18*
X104140000Y-92075000D03*
D19*
X102870000Y-92075000D03*
D17*
X103505000Y-89535000D03*
D19*
X102870000Y-89535000D03*
D18*
X104140000Y-89535000D03*
D17*
X103505000Y-86995000D03*
D18*
X104140000Y-86995000D03*
D19*
X102870000Y-86995000D03*
D18*
X104140000Y-84455000D03*
D19*
X102870000Y-84455000D03*
D17*
X103505000Y-84455000D03*
X103505000Y-81915000D03*
D18*
X104140000Y-81915000D03*
D19*
X102870000Y-81915000D03*
X102870000Y-79375000D03*
D17*
X103505000Y-79375000D03*
D18*
X104140000Y-79375000D03*
D19*
X102870000Y-76835000D03*
D18*
X104140000Y-76835000D03*
D17*
X103505000Y-76835000D03*
D18*
X104140000Y-74295000D03*
D19*
X102870000Y-74295000D03*
D17*
X103505000Y-74295000D03*
D18*
X87630000Y-74295000D03*
D17*
X86995000Y-74295000D03*
D18*
X86360000Y-74295000D03*
D17*
X86995000Y-76835000D03*
D19*
X87630000Y-76835000D03*
D18*
X86360000Y-76835000D03*
D17*
X86995000Y-79375000D03*
D19*
X87630000Y-79375000D03*
D18*
X86360000Y-79375000D03*
D19*
X87630000Y-81915000D03*
D17*
X86995000Y-81915000D03*
D18*
X86360000Y-81915000D03*
X86360000Y-84455000D03*
D19*
X87630000Y-84455000D03*
D17*
X86995000Y-84455000D03*
D18*
X86360000Y-86995000D03*
D17*
X86995000Y-86995000D03*
D19*
X87630000Y-86995000D03*
D17*
X86995000Y-89535000D03*
D19*
X87630000Y-89535000D03*
D18*
X86360000Y-89535000D03*
X86360000Y-92075000D03*
D19*
X87630000Y-92075000D03*
D17*
X86995000Y-92075000D03*
D19*
X87630000Y-94615000D03*
D17*
X86995000Y-94615000D03*
D18*
X86360000Y-94615000D03*
D19*
X87630000Y-97155000D03*
D17*
X86995000Y-97155000D03*
D18*
X86360000Y-97155000D03*
D17*
X86995000Y-99695000D03*
D18*
X86360000Y-99695000D03*
D19*
X87630000Y-99695000D03*
D18*
X86360000Y-102235000D03*
D17*
X86995000Y-102235000D03*
D19*
X87630000Y-102235000D03*
X87630000Y-104775000D03*
D18*
X86360000Y-104775000D03*
D17*
X86995000Y-104775000D03*
D18*
X86360000Y-107315000D03*
D19*
X87630000Y-107315000D03*
D17*
X86995000Y-107315000D03*
D18*
X86360000Y-109855000D03*
D17*
X86995000Y-109855000D03*
D19*
X87630000Y-109855000D03*
%TD*%
D11*
%TO.C,J2*%
X74930000Y-82550000D03*
D12*
X74930000Y-85050000D03*
X74930000Y-87550000D03*
%TD*%
D20*
%TO.C,U5*%
X77564759Y-98850000D03*
D21*
X75264759Y-105150000D03*
D20*
X75264759Y-98850000D03*
X72964759Y-98850000D03*
%TD*%
D22*
%TO.C,U4*%
X115500000Y-108320000D03*
D23*
X117000000Y-104000000D03*
D24*
X114000000Y-104000000D03*
%TD*%
D10*
%TO.C,REF\u002A\u002A*%
X86000000Y-59000000D03*
%TD*%
D25*
%TO.C,C1*%
X114046000Y-96520000D03*
X114046000Y-98595000D03*
%TD*%
D10*
%TO.C,REF\u002A\u002A*%
X104500000Y-59000000D03*
%TD*%
D26*
%TO.C,U1*%
X107953680Y-66677720D03*
D27*
X107953680Y-69217720D03*
X107953680Y-71757720D03*
X107953680Y-74297720D03*
X107953680Y-76837720D03*
X107953680Y-79377720D03*
X107953680Y-81917720D03*
X107953680Y-84457720D03*
X107953680Y-86997720D03*
X107953680Y-89537720D03*
X107953680Y-92077720D03*
X107953680Y-94617720D03*
X107953680Y-97157720D03*
X107953680Y-99697720D03*
X107953680Y-102237720D03*
X107953680Y-104777720D03*
X107953680Y-107317720D03*
X107950000Y-109855000D03*
X107950000Y-112395000D03*
X82553680Y-112397720D03*
X82553680Y-109857720D03*
X82553680Y-107317720D03*
X82553680Y-104777720D03*
X82553680Y-102237720D03*
D26*
X82553680Y-99697720D03*
D27*
X82553680Y-97157720D03*
X82553680Y-94617720D03*
X82553680Y-92077720D03*
X82553680Y-89537720D03*
X82553680Y-86997720D03*
X82553680Y-84457720D03*
X82553680Y-81917720D03*
X82553680Y-79377720D03*
X82553680Y-76837720D03*
X82553680Y-74297720D03*
X82553680Y-71757720D03*
X82553680Y-69217720D03*
X82553680Y-66677720D03*
%TD*%
D28*
%TO.C,U3*%
X115865000Y-99490000D03*
X116515000Y-99490000D03*
X117165000Y-99490000D03*
X117815000Y-99490000D03*
X117815000Y-96090000D03*
X117165000Y-96090000D03*
X116515000Y-96090000D03*
X115865000Y-96090000D03*
%TD*%
M02*
