M48
; DRILL file {KiCad (6.0.0-0)} date 2023 January 05, Thursday 20:45:11
; FORMAT={-:-/ absolute / inch / decimal}
; #@! TF.CreationDate,2023-01-05T20:45:11+02:00
; #@! TF.GenerationSoftware,Kicad,Pcbnew,(6.0.0-0)
; #@! TF.FileFunction,Plated,1,2,PTH
FMAT,2
INCH
; #@! TA.AperFunction,Plated,PTH,ViaDrill
T1C0.0157
; #@! TA.AperFunction,Plated,PTH,ComponentDrill
T2C0.0315
; #@! TA.AperFunction,Plated,PTH,ComponentDrill
T3C0.0374
; #@! TA.AperFunction,Plated,PTH,ComponentDrill
T4C0.0394
; #@! TA.AperFunction,Plated,PTH,ComponentDrill
T5C0.0402
; #@! TA.AperFunction,Plated,PTH,ComponentDrill
T6C0.1260
%
G90
G05
T1
X2.9Y-3.1
X2.95Y-3.1
X3.0Y-3.1
X3.1Y-2.7
X3.1Y-2.75
X3.1Y-2.8
X3.15Y-3.65
X3.15Y-3.7
X3.15Y-3.75
X3.55Y-2.775
X3.55Y-3.325
X3.6Y-2.9
X3.6Y-3.025
X3.675Y-2.425
X3.675Y-4.55
X3.7Y-2.75
X3.7Y-3.4
X3.7Y-4.05
X3.725Y-2.425
X3.725Y-4.55
X3.75Y-2.75
X3.75Y-3.175
X3.75Y-3.4
X3.775Y-2.425
X3.775Y-4.55
X3.8Y-2.75
X3.8Y-3.4
X3.825Y-2.425
X3.825Y-4.55
X3.875Y-4.225
X4.075Y-2.725
X4.35Y-3.125
X4.4Y-3.425
X4.4Y-3.475
X4.4Y-3.525
X4.45Y-2.65
X4.45Y-2.7
X4.45Y-2.75
X4.45Y-2.8
X4.45Y-2.925
X4.55Y-3.1
X4.6Y-3.1
X4.6Y-3.6
X4.61Y-3.73
X4.65Y-3.1
X4.65Y-3.73
X4.7Y-3.6
T2
X2.9134Y-4.3701
X2.95Y-3.7
X3.0118Y-4.3701
X3.0484Y-3.7
X3.2501Y-2.6251
X3.2501Y-2.7251
X3.2501Y-2.8251
X3.2501Y-2.9251
X3.2501Y-3.0251
X3.2501Y-3.1251
X3.2501Y-3.2251
X3.2501Y-3.3251
X3.2501Y-3.4251
X3.2501Y-3.5251
X3.2501Y-3.6251
X3.2501Y-3.7251
X3.2501Y-3.8251
X3.2501Y-3.9251
X3.2501Y-4.0251
X3.2501Y-4.1251
X3.2501Y-4.2251
X3.2501Y-4.3251
X3.2501Y-4.4251
X4.25Y-4.325
X4.25Y-4.425
X4.2501Y-2.6251
X4.2501Y-2.7251
X4.2501Y-2.8251
X4.2501Y-2.9251
X4.2501Y-3.0251
X4.2501Y-3.1251
X4.2501Y-3.2251
X4.2501Y-3.3251
X4.2501Y-3.4251
X4.2501Y-3.5251
X4.2501Y-3.6251
X4.2501Y-3.7251
X4.2501Y-3.8251
X4.2501Y-3.9251
X4.2501Y-4.0251
X4.2501Y-4.1251
X4.2501Y-4.2251
T3
X2.95Y-2.7559
X2.95Y-2.8543
X2.95Y-2.9528
X2.95Y-3.25
X2.95Y-3.3484
X2.95Y-3.4469
X4.6181Y-3.248
X4.6181Y-3.3465
X4.6181Y-3.4449
X4.6189Y-2.7559
X4.6189Y-2.8543
X4.6189Y-2.9528
T4
X3.4Y-2.925
X3.4Y-3.025
X3.4Y-3.125
X3.4Y-3.225
X3.4Y-3.325
X3.4Y-3.425
X3.4Y-3.525
X3.4Y-3.625
X3.4Y-3.725
X3.4Y-3.825
X3.4Y-3.925
X3.4Y-4.025
X3.4Y-4.125
X3.4Y-4.225
X3.4Y-4.325
X3.45Y-2.925
X3.45Y-3.025
X3.45Y-3.125
X3.45Y-3.225
X3.45Y-3.325
X3.45Y-3.425
X3.45Y-3.525
X3.45Y-3.625
X3.45Y-3.725
X3.45Y-3.825
X3.45Y-3.925
X3.45Y-4.025
X3.45Y-4.125
X3.45Y-4.225
X3.45Y-4.325
X4.05Y-2.925
X4.05Y-3.025
X4.05Y-3.125
X4.05Y-3.225
X4.05Y-3.325
X4.05Y-3.425
X4.05Y-3.525
X4.05Y-3.625
X4.05Y-3.725
X4.05Y-3.825
X4.05Y-3.925
X4.05Y-4.025
X4.05Y-4.125
X4.05Y-4.225
X4.05Y-4.325
X4.1Y-2.925
X4.1Y-3.025
X4.1Y-3.125
X4.1Y-3.225
X4.1Y-3.325
X4.1Y-3.425
X4.1Y-3.525
X4.1Y-3.625
X4.1Y-3.725
X4.1Y-3.825
X4.1Y-3.925
X4.1Y-4.025
X4.1Y-4.125
X4.1Y-4.225
X4.1Y-4.325
T5
X4.4882Y-4.0945
X4.6063Y-4.0945
T6
X3.3858Y-2.3228
X3.3858Y-4.685
X4.1142Y-2.3228
X4.1142Y-4.685
T0
M30
